<svg width="20" height="20" viewBox="0 0 20 20" fill="none" xmlns="http://www.w3.org/2000/svg">
<path d="M6.66675 6.66669H6.67508M1.66675 4.33335L1.66675 8.06212C1.66675 8.46977 1.66675 8.67359 1.7128 8.86541C1.75363 9.03547 1.82097 9.19804 1.91235 9.34716C2.01542 9.51536 2.15954 9.65948 2.4478 9.94773L8.83832 16.3383C9.82836 17.3283 10.3234 17.8233 10.8942 18.0088C11.3963 18.1719 11.9372 18.1719 12.4393 18.0088C13.0101 17.8233 13.5051 17.3283 14.4952 16.3383L16.3383 14.4951C17.3284 13.5051 17.8234 13.0101 18.0089 12.4392C18.172 11.9371 18.172 11.3963 18.0089 10.8941C17.8234 10.3233 17.3284 9.8283 16.3383 8.83826L9.94779 2.44774C9.65954 2.15948 9.51541 2.01536 9.34722 1.91229C9.1981 1.82091 9.03553 1.75357 8.86547 1.71274C8.67365 1.66669 8.46983 1.66669 8.06218 1.66669L4.33341 1.66669C3.39999 1.66669 2.93328 1.66669 2.57676 1.84834C2.26316 2.00813 2.00819 2.2631 1.8484 2.5767C1.66675 2.93322 1.66675 3.39993 1.66675 4.33335ZM7.08342 6.66669C7.08342 6.89681 6.89687 7.08335 6.66675 7.08335C6.43663 7.08335 6.25008 6.89681 6.25008 6.66669C6.25008 6.43657 6.43663 6.25002 6.66675 6.25002C6.89687 6.25002 7.08342 6.43657 7.08342 6.66669Z" stroke="#1D2939" stroke-width="1.3" stroke-linecap="round" stroke-linejoin="round"/>
</svg>
