<svg width="20" height="20" viewBox="0 0 20 20" fill="none" xmlns="http://www.w3.org/2000/svg">
<path d="M16.6666 10.4166V5.66663C16.6666 4.26649 16.6666 3.56643 16.3941 3.03165C16.1544 2.56124 15.772 2.17879 15.3016 1.93911C14.7668 1.66663 14.0667 1.66663 12.6666 1.66663H7.33325C5.93312 1.66663 5.23306 1.66663 4.69828 1.93911C4.22787 2.17879 3.84542 2.56124 3.60574 3.03165C3.33325 3.56643 3.33325 4.26649 3.33325 5.66663V14.3333C3.33325 15.7334 3.33325 16.4335 3.60574 16.9683C3.84542 17.4387 4.22787 17.8211 4.69828 18.0608C5.23306 18.3333 5.93312 18.3333 7.33325 18.3333H9.99992M11.6666 9.16663H6.66659M8.33325 12.5H6.66659M13.3333 5.83329H6.66659M12.0833 15.8333L13.7499 17.5L17.4999 13.75" stroke="#1D2939" stroke-width="1.3" stroke-linecap="round" stroke-linejoin="round"/>
</svg>
