<svg width="20" height="20" viewBox="0 0 20 20" fill="none" xmlns="http://www.w3.org/2000/svg">
<path d="M16.6666 10.4167V5.66666C16.6666 4.26653 16.6666 3.56646 16.3942 3.03168C16.1545 2.56128 15.772 2.17882 15.3016 1.93914C14.7668 1.66666 14.0668 1.66666 12.6666 1.66666H7.33331C5.93318 1.66666 5.23312 1.66666 4.69834 1.93914C4.22793 2.17882 3.84548 2.56128 3.6058 3.03168C3.33331 3.56646 3.33331 4.26653 3.33331 5.66666V14.3333C3.33331 15.7335 3.33331 16.4335 3.6058 16.9683C3.84548 17.4387 4.22793 17.8212 4.69834 18.0608C5.23312 18.3333 5.93314 18.3333 7.33319 18.3333H10.4166M11.6666 9.16666H6.66665M8.33331 12.5H6.66665M13.3333 5.83332H6.66665M12.5 15.8333L15 18.3333M15 18.3333L17.5 15.8333M15 18.3333V13.3333" stroke="#444CE7" stroke-width="1.5" stroke-linecap="round" stroke-linejoin="round"/>
</svg>
