<svg width="20" height="20" viewBox="0 0 20 20" fill="none" xmlns="http://www.w3.org/2000/svg">
<path d="M1.66675 3.83333C1.66675 3.36662 1.66675 3.13327 1.75758 2.95501C1.83747 2.79821 1.96495 2.67072 2.12176 2.59083C2.30002 2.5 2.53337 2.5 3.00008 2.5H17.0001C17.4668 2.5 17.7001 2.5 17.8784 2.59083C18.0352 2.67072 18.1627 2.79821 18.2426 2.95501C18.3334 3.13327 18.3334 3.36662 18.3334 3.83333V4.39116C18.3334 4.61516 18.3334 4.72716 18.306 4.8313C18.2818 4.92359 18.2419 5.01103 18.188 5.0898C18.1272 5.17869 18.0426 5.25204 17.8733 5.39875L12.5435 10.0179C12.3742 10.1646 12.2896 10.238 12.2288 10.3269C12.175 10.4056 12.135 10.4931 12.1108 10.5854C12.0834 10.6895 12.0834 10.8015 12.0834 11.0255V15.382C12.0834 15.5449 12.0834 15.6264 12.0571 15.6969C12.0339 15.7591 11.9961 15.8149 11.947 15.8596C11.8913 15.9102 11.8157 15.9404 11.6643 16.001L8.83101 17.1343C8.52472 17.2568 8.37158 17.3181 8.24864 17.2925C8.14114 17.2702 8.04679 17.2063 7.98612 17.1148C7.91675 17.0101 7.91675 16.8452 7.91675 16.5153V11.0255C7.91675 10.8015 7.91675 10.6895 7.88938 10.5854C7.86512 10.4931 7.82519 10.4056 7.77134 10.3269C7.71056 10.238 7.62593 10.1646 7.45666 10.0179L2.12684 5.39875C1.95757 5.25204 1.87293 5.17869 1.81216 5.0898C1.7583 5.01103 1.71838 4.92359 1.69412 4.8313C1.66675 4.72716 1.66675 4.61516 1.66675 4.39116V3.83333Z" stroke="#344054" stroke-width="2" stroke-linecap="round" stroke-linejoin="round"/>
</svg>
