<svg width="20" height="20" viewBox="0 0 20 20" fill="none" xmlns="http://www.w3.org/2000/svg">
<path d="M10.0001 17.5L9.9167 17.3749C9.33783 16.5066 9.0484 16.0725 8.666 15.7582C8.32746 15.4799 7.93739 15.2712 7.51809 15.1438C7.04446 15 6.52267 15 5.4791 15H4.33341C3.39999 15 2.93328 15 2.57676 14.8183C2.26316 14.6586 2.00819 14.4036 1.8484 14.09C1.66675 13.7335 1.66675 13.2668 1.66675 12.3333V5.16667C1.66675 4.23325 1.66675 3.76654 1.8484 3.41002C2.00819 3.09641 2.26316 2.84144 2.57676 2.68166C2.93328 2.5 3.39999 2.5 4.33341 2.5H4.66675C6.53359 2.5 7.46701 2.5 8.18005 2.86331C8.80726 3.18289 9.31719 3.69282 9.63677 4.32003C10.0001 5.03307 10.0001 5.96649 10.0001 7.83333M10.0001 17.5V7.83333M10.0001 17.5L10.0835 17.3749C10.6623 16.5066 10.9518 16.0725 11.3342 15.7582C11.6727 15.4799 12.0628 15.2712 12.4821 15.1438C12.9557 15 13.4775 15 14.5211 15H15.6667C16.6002 15 17.0669 15 17.4234 14.8183C17.737 14.6586 17.992 14.4036 18.1518 14.09C18.3334 13.7335 18.3334 13.2668 18.3334 12.3333V5.16667C18.3334 4.23325 18.3334 3.76654 18.1518 3.41002C17.992 3.09641 17.737 2.84144 17.4234 2.68166C17.0669 2.5 16.6002 2.5 15.6667 2.5H15.3334C13.4666 2.5 12.5332 2.5 11.8201 2.86331C11.1929 3.18289 10.683 3.69282 10.3634 4.32003C10.0001 5.03307 10.0001 5.96649 10.0001 7.83333" stroke="#1D2939" stroke-width="1.3" stroke-linecap="round" stroke-linejoin="round"/>
</svg>
