<svg width="20" height="20" viewBox="0 0 20 20" fill="none" xmlns="http://www.w3.org/2000/svg">
<path d="M7.50008 7.49996H7.50842M12.5001 12.5H12.5084M13.3334 6.66663L6.66675 13.3333M18.3334 9.99996C18.3334 14.6023 14.6025 18.3333 10.0001 18.3333C5.39771 18.3333 1.66675 14.6023 1.66675 9.99996C1.66675 5.39759 5.39771 1.66663 10.0001 1.66663C14.6025 1.66663 18.3334 5.39759 18.3334 9.99996ZM7.91675 7.49996C7.91675 7.73008 7.7302 7.91663 7.50008 7.91663C7.26996 7.91663 7.08341 7.73008 7.08341 7.49996C7.08341 7.26984 7.26996 7.08329 7.50008 7.08329C7.7302 7.08329 7.91675 7.26984 7.91675 7.49996ZM12.9167 12.5C12.9167 12.7301 12.7302 12.9166 12.5001 12.9166C12.27 12.9166 12.0834 12.7301 12.0834 12.5C12.0834 12.2698 12.27 12.0833 12.5001 12.0833C12.7302 12.0833 12.9167 12.2698 12.9167 12.5Z" stroke="#1D2939" stroke-width="1.3" stroke-linecap="round" stroke-linejoin="round"/>
</svg>
