<svg width="269" height="200" viewBox="0 0 269 200" fill="none" xmlns="http://www.w3.org/2000/svg">
<path d="M134.207 200C191.691 200 238.292 197.279 238.292 193.923C238.292 190.567 191.691 187.846 134.207 187.846C76.7219 187.846 30.1213 190.567 30.1213 193.923C30.1213 197.279 76.7219 200 134.207 200Z" fill="#F5F5F5"/>
<path d="M165.219 34.84C164.783 33.3975 164.204 32.002 163.49 30.6742L164.564 27.158L157.623 20.2115L154.107 21.2852C152.779 20.5721 151.384 19.9931 149.941 19.5566L148.212 16.3356H138.389L136.665 19.5566C135.222 19.9921 133.827 20.5712 132.5 21.2852L128.983 20.2115L122.037 27.158L123.11 30.6742C122.401 32.0033 121.824 33.3985 121.387 34.84L118.139 36.5686V46.3925L121.387 48.1157C121.823 49.5576 122.4 50.953 123.11 52.2815L122.037 55.7977L128.983 62.7443L132.5 61.6706C133.828 62.3806 135.223 62.9578 136.665 63.3938L138.389 66.6148H148.212L149.941 63.3938C151.382 62.9567 152.778 62.3795 154.107 61.6706L157.623 62.7443L164.57 55.7977L163.496 52.2815C164.21 50.9542 164.789 49.5586 165.224 48.1157L168.472 46.3925V36.5686L165.219 34.84ZM143.3 55.4327C140.54 55.4327 137.841 54.6141 135.546 53.0804C133.251 51.5467 131.462 49.3669 130.405 46.8165C129.349 44.2661 129.073 41.4597 129.611 38.7522C130.15 36.0447 131.479 33.5577 133.431 31.6058C135.383 29.6538 137.87 28.3245 140.577 27.7859C143.285 27.2473 146.091 27.5238 148.642 28.5802C151.192 29.6366 153.372 31.4255 154.906 33.7208C156.439 36.0161 157.258 38.7147 157.258 41.4752C157.258 45.1769 155.787 48.7271 153.17 51.3446C150.552 53.9622 147.002 55.4327 143.3 55.4327Z" fill="#3D3FDF"/>
<path opacity="0.2" d="M165.219 34.84C164.783 33.3975 164.204 32.002 163.49 30.6742L164.564 27.158L157.623 20.2115L154.107 21.2852C152.779 20.5721 151.384 19.9931 149.941 19.5566L148.212 16.3356H138.389L136.665 19.5566C135.222 19.9921 133.827 20.5712 132.5 21.2852L128.983 20.2115L122.037 27.158L123.11 30.6742C122.401 32.0033 121.824 33.3985 121.387 34.84L118.139 36.5686V46.3925L121.387 48.1157C121.823 49.5576 122.4 50.953 123.11 52.2815L122.037 55.7977L128.983 62.7443L132.5 61.6706C133.828 62.3806 135.223 62.9578 136.665 63.3938L138.389 66.6148H148.212L149.941 63.3938C151.382 62.9567 152.778 62.3795 154.107 61.6706L157.623 62.7443L164.57 55.7977L163.496 52.2815C164.21 50.9542 164.789 49.5586 165.224 48.1157L168.472 46.3925V36.5686L165.219 34.84ZM143.3 55.4327C140.54 55.4327 137.841 54.6141 135.546 53.0804C133.251 51.5467 131.462 49.3669 130.405 46.8165C129.349 44.2661 129.073 41.4597 129.611 38.7522C130.15 36.0447 131.479 33.5577 133.431 31.6058C135.383 29.6538 137.87 28.3245 140.577 27.7859C143.285 27.2473 146.091 27.5238 148.642 28.5802C151.192 29.6366 153.372 31.4255 154.906 33.7208C156.439 36.0161 157.258 38.7147 157.258 41.4752C157.258 45.1769 155.787 48.7271 153.17 51.3446C150.552 53.9622 147.002 55.4327 143.3 55.4327Z" fill="white"/>
<path d="M143.3 36.8531C142.385 36.8531 141.491 37.1245 140.73 37.633C139.969 38.1415 139.376 38.8642 139.025 39.7097C138.675 40.5553 138.583 41.4857 138.762 42.3833C138.941 43.281 139.381 44.1055 140.028 44.7527C140.676 45.3998 141.5 45.8405 142.398 46.0191C143.295 46.1977 144.226 46.106 145.071 45.7558C145.917 45.4055 146.64 44.8124 147.148 44.0514C147.657 43.2905 147.928 42.3958 147.928 41.4806C147.928 40.2533 147.44 39.0763 146.573 38.2085C145.705 37.3407 144.528 36.8531 143.3 36.8531Z" fill="#3D3FDF"/>
<path d="M235.13 50.4241C234.506 48.3618 233.681 46.3659 232.666 44.4653L234.201 39.4406L224.286 29.5254L219.256 31.0661C217.362 30.0397 215.367 29.2121 213.302 28.5967L210.838 23.9585H196.8L194.331 28.5967C192.267 29.214 190.272 30.0415 188.378 31.0661L183.353 29.5254L173.427 39.4514L174.962 44.4761C173.943 46.3745 173.117 48.3709 172.498 50.4348L167.855 52.8989V66.9369L172.493 69.4063C173.111 71.4688 173.937 73.4635 174.957 75.3597L173.422 80.379L183.348 90.3049L188.372 88.7696C190.269 89.791 192.266 90.6149 194.331 91.2283L196.8 95.8718H210.838L213.302 91.2336C215.365 90.6136 217.36 89.7863 219.256 88.7642L224.286 90.2996L234.212 80.3736L232.676 75.3489C233.689 73.4502 234.51 71.456 235.13 69.3955L239.768 66.9261V52.8881L235.13 50.4241ZM203.817 85.3554C198.783 85.3554 193.862 83.8627 189.677 81.0661C185.492 78.2695 182.229 74.2946 180.303 69.6441C178.377 64.9935 177.873 59.8762 178.855 54.9392C179.837 50.0022 182.261 45.4673 185.82 41.9079C189.38 38.3485 193.914 35.9246 198.851 34.9425C203.788 33.9605 208.906 34.4645 213.556 36.3908C218.207 38.3172 222.182 41.5793 224.978 45.7647C227.775 49.95 229.268 54.8707 229.268 59.9044C229.268 63.2467 228.609 66.5562 227.33 69.6441C226.051 72.7319 224.177 75.5376 221.813 77.901C219.45 80.2643 216.644 82.139 213.556 83.418C210.469 84.6971 207.159 85.3554 203.817 85.3554Z" fill="#3D3FDF"/>
<path d="M203.817 38.0234C199.488 38.0245 195.257 39.309 191.659 41.7145C188.06 44.1201 185.256 47.5387 183.6 51.538C181.944 55.5373 181.512 59.9377 182.357 64.1829C183.202 68.4281 185.287 72.3274 188.348 75.3877C191.409 78.4481 195.309 80.532 199.554 81.3761C203.8 82.2201 208.2 81.7864 212.199 80.1297C216.198 78.473 219.616 75.6678 222.02 72.0687C224.425 68.4696 225.709 64.2383 225.709 59.9098C225.701 54.1064 223.393 48.5429 219.288 44.4397C215.184 40.3366 209.62 38.0291 203.817 38.0234ZM203.817 78.8813C200.064 78.8823 196.396 77.7706 193.275 75.6866C190.155 73.6026 187.722 70.6401 186.286 67.1736C184.849 63.7071 184.472 59.8924 185.204 56.212C185.935 52.5315 187.742 49.1506 190.395 46.4969C193.048 43.8431 196.428 42.0358 200.108 41.3033C203.789 40.5708 207.603 40.9462 211.07 42.382C214.537 43.8177 217.5 46.2493 219.585 49.3693C221.67 52.4892 222.783 56.1574 222.783 59.9098C222.777 64.9387 220.777 69.76 217.222 73.3165C213.666 76.8729 208.846 78.8742 203.817 78.8813Z" fill="#3D3FDF"/>
<path opacity="0.2" d="M203.817 38.0234C199.488 38.0245 195.257 39.309 191.659 41.7145C188.06 44.1201 185.256 47.5387 183.6 51.538C181.944 55.5373 181.512 59.9377 182.357 64.1829C183.202 68.4281 185.287 72.3274 188.348 75.3877C191.409 78.4481 195.309 80.532 199.554 81.3761C203.8 82.2201 208.2 81.7864 212.199 80.1297C216.198 78.473 219.616 75.6678 222.02 72.0687C224.425 68.4696 225.709 64.2383 225.709 59.9098C225.701 54.1064 223.393 48.5429 219.288 44.4397C215.184 40.3366 209.62 38.0291 203.817 38.0234ZM203.817 78.8813C200.064 78.8823 196.396 77.7706 193.275 75.6866C190.155 73.6026 187.722 70.6401 186.286 67.1736C184.849 63.7071 184.472 59.8924 185.204 56.212C185.935 52.5315 187.742 49.1506 190.395 46.4969C193.048 43.8431 196.428 42.0358 200.108 41.3033C203.789 40.5708 207.603 40.9462 211.07 42.382C214.537 43.8177 217.5 46.2493 219.585 49.3693C221.67 52.4892 222.783 56.1574 222.783 59.9098C222.777 64.9387 220.777 69.76 217.222 73.3165C213.666 76.8729 208.846 78.8742 203.817 78.8813Z" fill="black"/>
<path d="M153.532 97.2515C153.39 97.2515 153.253 97.1949 153.153 97.0942C153.052 96.9936 152.995 96.857 152.995 96.7146V95.641C152.995 95.4986 153.052 95.3621 153.153 95.2614C153.253 95.1607 153.39 95.1042 153.532 95.1042C153.674 95.1042 153.811 95.1607 153.912 95.2614C154.012 95.3621 154.069 95.4986 154.069 95.641V96.7146C154.069 96.857 154.012 96.9936 153.912 97.0942C153.811 97.1949 153.674 97.2515 153.532 97.2515Z" fill="#3D3FDF"/>
<path d="M145.174 83.3799C144.681 83.0631 144.296 82.6046 144.068 82.0647C144.012 81.9337 143.906 81.8304 143.774 81.7775C143.641 81.7247 143.493 81.7266 143.362 81.7828C143.231 81.8391 143.128 81.945 143.075 82.0774C143.022 82.2098 143.024 82.3578 143.08 82.4888C143.396 83.2219 143.92 83.8456 144.589 84.2817C144.675 84.3376 144.776 84.3674 144.879 84.3676C144.995 84.3685 145.108 84.3316 145.202 84.2626C145.295 84.1935 145.364 84.0959 145.397 83.9846C145.43 83.8732 145.427 83.7541 145.386 83.645C145.346 83.536 145.272 83.4429 145.174 83.3799Z" fill="#3D3FDF"/>
<path d="M143.3 76.6749C143.443 76.6749 143.579 76.6183 143.68 76.5177C143.78 76.417 143.837 76.2805 143.837 76.1381V74.082C143.837 73.9397 143.78 73.8031 143.68 73.7024C143.579 73.6018 143.443 73.5452 143.3 73.5452C143.158 73.5452 143.021 73.6018 142.921 73.7024C142.82 73.8031 142.763 73.9397 142.763 74.082V76.1381C142.763 76.2805 142.82 76.417 142.921 76.5177C143.021 76.6183 143.158 76.6749 143.3 76.6749Z" fill="#3D3FDF"/>
<path d="M148.889 83.8523H146.827C146.685 83.8523 146.548 83.9088 146.448 84.0095C146.347 84.1102 146.291 84.2467 146.291 84.3891C146.291 84.5315 146.347 84.668 146.448 84.7687C146.548 84.8694 146.685 84.9259 146.827 84.9259H148.889C149.031 84.9259 149.168 84.8694 149.268 84.7687C149.369 84.668 149.426 84.5315 149.426 84.3891C149.426 84.2467 149.369 84.1102 149.268 84.0095C149.168 83.9088 149.031 83.8523 148.889 83.8523Z" fill="#3D3FDF"/>
<path d="M143.837 80.2555V78.1995C143.837 78.0571 143.78 77.9206 143.68 77.8199C143.579 77.7192 143.443 77.6627 143.3 77.6627C143.158 77.6627 143.021 77.7192 142.921 77.8199C142.82 77.9206 142.763 78.0571 142.763 78.1995V80.2555C142.763 80.3979 142.82 80.5344 142.921 80.6351C143.021 80.7358 143.158 80.7924 143.3 80.7924C143.443 80.7924 143.579 80.7358 143.68 80.6351C143.78 80.5344 143.837 80.3979 143.837 80.2555Z" fill="#3D3FDF"/>
<path d="M154.037 87.3416C154.018 87.2008 153.944 87.0731 153.832 86.9865C153.719 86.9 153.577 86.8617 153.436 86.88C153.366 86.8916 153.299 86.9171 153.239 86.9548C153.179 86.9925 153.127 87.0417 153.086 87.0996C153.045 87.1575 153.016 87.2229 153 87.2921C152.985 87.3613 152.983 87.4328 152.995 87.5027C153.013 87.6272 153.022 87.7527 153.022 87.8785V89.4889C153.022 89.6313 153.079 89.7679 153.18 89.8685C153.28 89.9692 153.417 90.0258 153.559 90.0258C153.701 90.0258 153.838 89.9692 153.939 89.8685C154.039 89.7679 154.096 89.6313 154.096 89.4889V87.8785C154.088 87.6984 154.068 87.5191 154.037 87.3416Z" fill="#3D3FDF"/>
<path d="M153.532 90.9867C153.39 90.9867 153.253 91.0433 153.153 91.1439C153.052 91.2446 152.995 91.3811 152.995 91.5235V93.5849C152.995 93.7273 153.052 93.8639 153.153 93.9645C153.253 94.0652 153.39 94.1218 153.532 94.1218C153.674 94.1218 153.811 94.0652 153.912 93.9645C154.012 93.8639 154.069 93.7273 154.069 93.5849V91.5235C154.069 91.3811 154.012 91.2446 153.912 91.1439C153.811 91.0433 153.674 90.9867 153.532 90.9867Z" fill="#3D3FDF"/>
<path d="M153.065 85.2104C152.54 84.6102 151.846 84.1819 151.074 83.9811C151.005 83.9635 150.934 83.9595 150.864 83.9694C150.794 83.9793 150.727 84.0028 150.666 84.0387C150.605 84.0746 150.552 84.1221 150.51 84.1786C150.467 84.235 150.436 84.2992 150.419 84.3676C150.401 84.436 150.397 84.5072 150.407 84.5771C150.417 84.647 150.44 84.7143 150.476 84.7751C150.512 84.8359 150.56 84.8891 150.616 84.9315C150.672 84.974 150.737 85.0049 150.805 85.0225C151.369 85.1681 151.876 85.4806 152.26 85.919C152.31 85.9763 152.372 86.0222 152.442 86.0537C152.511 86.0851 152.586 86.1015 152.663 86.1016C152.766 86.1014 152.867 86.0716 152.953 86.0156C153.04 85.9596 153.109 85.8798 153.151 85.7858C153.194 85.6917 153.208 85.5875 153.193 85.4855C153.178 85.3834 153.133 85.2879 153.065 85.2104Z" fill="#3D3FDF"/>
<path d="M143.3 72.536C143.158 72.536 143.021 72.4794 142.921 72.3787C142.82 72.2781 142.763 72.1415 142.763 71.9991V70.9255C142.763 70.7831 142.82 70.6466 142.921 70.5459C143.021 70.4452 143.158 70.3887 143.3 70.3887C143.443 70.3887 143.579 70.4452 143.68 70.5459C143.78 70.6466 143.837 70.7831 143.837 70.9255V71.9991C143.837 72.1415 143.78 72.2781 143.68 72.3787C143.579 72.4794 143.443 72.536 143.3 72.536Z" fill="#3D3FDF"/>
<path d="M178.962 124.281H54.6652V126.272H178.962V124.281Z" fill="#3D3FDF"/>
<path d="M178.962 126.272H205.932V124.281H178.962V126.272Z" fill="#3D3FDF"/>
<path opacity="0.2" d="M178.962 126.272H205.932V124.281H178.962V126.272Z" fill="black"/>
<path d="M196.924 128.403H63.6731L59.2174 126.272H201.38L196.924 128.403Z" fill="#3D3FDF"/>
<path opacity="0.6" d="M196.924 128.403H63.6731L59.2174 126.272H201.38L196.924 128.403Z" fill="white"/>
<path d="M67.6991 128.403V191.931H69.4062L71.5535 128.403H67.6991Z" fill="#3D3FDF"/>
<path d="M87.8519 128.403V191.931H89.559L91.7063 128.403H87.8519Z" fill="#3D3FDF"/>
<path d="M196.924 128.403V191.931H195.222L193.07 128.403H196.924Z" fill="#3D3FDF"/>
<path d="M176.777 128.403V191.931H175.07L172.923 128.403H176.777Z" fill="#3D3FDF"/>
<path d="M136.214 100.166L130.605 123.019L130.449 124.281H169.143L169.304 123.019L174.909 100.166H136.214Z" fill="#3D3FDF"/>
<path opacity="0.3" d="M136.214 100.166L130.605 123.019L130.449 124.281H169.143L169.304 123.019L174.909 100.166H136.214Z" fill="black"/>
<path d="M173.723 100.166H135.023L129.418 123.019H168.113L173.723 100.166Z" fill="#3D3FDF"/>
<path d="M167.291 121.972L172.391 101.213H135.844L130.749 121.972H167.291Z" fill="white"/>
<path d="M158.031 123.019L157.87 124.281H115.262L115.418 123.019H158.031Z" fill="#3D3FDF"/>
<path opacity="0.6" d="M158.031 123.019L157.87 124.281H115.262L115.418 123.019H158.031Z" fill="white"/>
<path d="M77.5394 120.126C77.5124 119.308 77.1922 118.527 76.6373 117.926C76.0825 117.325 75.3299 116.943 74.517 116.851V116.234C74.5163 116.198 74.5085 116.163 74.494 116.13C74.4796 116.097 74.4587 116.068 74.4327 116.043C74.4067 116.019 74.3761 116 74.3426 115.987C74.3092 115.975 74.2736 115.969 74.2379 115.971H68.4401C68.4042 115.969 68.3683 115.975 68.3345 115.987C68.3008 116 68.2698 116.019 68.2433 116.043C68.2169 116.068 68.1956 116.097 68.1805 116.13C68.1655 116.162 68.157 116.198 68.1556 116.234V124.286H74.517V123.406C75.3312 123.314 76.0851 122.932 76.6403 122.33C77.1955 121.727 77.5147 120.945 77.5394 120.126ZM74.517 122.364V117.892C75.0535 117.971 75.5437 118.241 75.8981 118.651C76.2525 119.062 76.4475 119.586 76.4475 120.128C76.4475 120.671 76.2525 121.195 75.8981 121.605C75.5437 122.016 75.0535 122.285 74.517 122.364Z" fill="#3D3FDF"/>
<path d="M186.043 124.281H191.432L189.838 112.476H186.043V124.281Z" fill="#263238"/>
<path d="M178.14 124.281H188.351L190.246 110.463H180.041L178.14 124.281Z" fill="#3D3FDF"/>
<path opacity="0.3" d="M178.14 124.281H188.351L190.246 110.463H180.041L178.14 124.281Z" fill="black"/>
<path d="M176.777 124.281H187.401L189.301 110.463H178.677L176.777 124.281Z" fill="#3D3FDF"/>
<path opacity="0.4" d="M186.461 123.191L188.061 111.552H179.617L178.017 123.191H186.461Z" fill="white"/>
<path d="M106.045 103.881L105.604 104.354L105.132 104.89C104.815 105.256 104.499 105.626 104.198 106.007C103.597 106.769 103.017 107.548 102.475 108.348C101.396 109.895 100.496 111.559 99.7906 113.308C99.4623 114.139 99.2072 114.998 99.0283 115.874C98.9424 116.368 98.8887 116.583 98.8619 116.792C98.8322 116.959 98.8322 117.13 98.8619 117.297C98.9519 117.559 99.0932 117.801 99.2775 118.008C99.4618 118.216 99.6855 118.384 99.9355 118.504C100.298 118.728 100.679 118.92 101.074 119.079C101.281 119.165 101.496 119.245 101.718 119.32C101.922 119.396 102.179 119.471 102.341 119.535V122.493C101.965 122.547 101.691 122.59 101.374 122.611C101.058 122.633 100.752 122.638 100.435 122.611C99.7836 122.598 99.1358 122.515 98.5022 122.364C97.7884 122.196 97.1042 121.921 96.473 121.548C95.7309 121.114 95.0931 120.522 94.6049 119.814C94.1022 119.061 93.7688 118.207 93.6278 117.313C93.5919 117.103 93.5686 116.892 93.558 116.679C93.5474 116.475 93.5474 116.271 93.558 116.067V115.767C93.552 115.686 93.552 115.605 93.558 115.525L93.601 115.053C93.7383 113.826 93.9973 112.615 94.374 111.44C95.101 109.182 96.1246 107.03 97.4178 105.041C98.0392 104.064 98.7149 103.123 99.4417 102.222C99.8013 101.772 100.172 101.331 100.558 100.897C100.746 100.676 100.945 100.462 101.149 100.247C101.353 100.032 101.541 99.8443 101.82 99.5759L106.045 103.881Z" fill="#B55B52"/>
<path d="M101.272 119.471L103.774 117.635L105.196 122.778C105.196 122.778 102.979 123.599 101.288 122.493L101.272 119.471Z" fill="#B55B52"/>
<path d="M107.247 116.4L108.224 120.705L105.197 122.778L103.774 117.635L107.247 116.4Z" fill="#B55B52"/>
<path d="M123.067 84.1475C122.955 84.4642 123.035 84.781 123.245 84.8508C123.454 84.9205 123.712 84.7273 123.819 84.4106C123.926 84.0938 123.851 83.7717 123.647 83.702C123.443 83.6322 123.18 83.8254 123.067 84.1475Z" fill="#263238"/>
<path d="M123.009 84.7702C123.05 85.8758 123.244 86.9704 123.583 88.0234C123.313 88.1009 123.029 88.1189 122.751 88.0763C122.473 88.0337 122.207 87.9314 121.972 87.7764L123.009 84.7702Z" fill="#A02724"/>
<path d="M122.552 81.9895C122.592 82.003 122.635 82.003 122.675 81.9895C122.911 81.9109 123.162 81.8894 123.407 81.9267C123.653 81.964 123.886 82.0592 124.087 82.2042C124.128 82.2335 124.178 82.2465 124.227 82.2407C124.277 82.2348 124.322 82.2106 124.355 82.1727C124.387 82.1348 124.404 82.0861 124.402 82.0362C124.401 81.9864 124.38 81.939 124.345 81.9036C124.093 81.7158 123.8 81.591 123.49 81.5396C123.18 81.4883 122.862 81.5118 122.563 81.6083C122.524 81.6218 122.49 81.6471 122.465 81.6808C122.441 81.7144 122.428 81.7548 122.428 81.7962C122.428 81.8376 122.441 81.878 122.465 81.9117C122.49 81.9453 122.524 81.9707 122.563 81.9841L122.552 81.9895Z" fill="#263238"/>
<path d="M111.295 85.3178C111.896 88.3723 112.492 93.9714 110.355 96.0114C110.355 96.0114 111.193 99.1088 116.872 99.1088C123.116 99.1088 119.857 96.0114 119.857 96.0114C116.448 95.1954 116.534 92.6669 117.13 90.2942L111.295 85.3178Z" fill="#B55B52"/>
<path d="M109.539 97.0743C109.088 96.0919 108.6 94.9699 109.614 94.621C110.736 94.2345 116.878 93.8372 118.993 94.5619C119.272 94.638 119.534 94.7691 119.763 94.9476C119.991 95.126 120.181 95.3482 120.323 95.6011C120.464 95.854 120.554 96.1327 120.586 96.4206C120.619 96.7086 120.594 97.0002 120.512 97.2783L109.539 97.0743Z" fill="#263238"/>
<path d="M130.986 102.314C132.301 104.681 133.713 107.118 135.141 109.459C136.569 111.799 138.067 114.129 139.666 116.255C140.064 116.792 140.477 117.302 140.885 117.812C141.089 118.075 141.304 118.29 141.513 118.531L141.824 118.886L141.905 118.977L141.942 119.02L141.98 119.068C142.23 119.31 142.531 119.493 142.86 119.605C143.368 119.781 143.891 119.909 144.423 119.986C147.032 120.249 149.663 120.219 152.266 119.895L153.082 122.74C152.357 123.062 151.68 123.277 150.961 123.545C150.242 123.814 149.533 123.991 148.814 124.173C147.289 124.556 145.726 124.765 144.154 124.796C143.272 124.81 142.391 124.722 141.529 124.533C140.471 124.323 139.473 123.879 138.609 123.234L138.249 122.939L138.163 122.863L138.109 122.81L138.007 122.708L137.589 122.294C137.315 122.021 137.014 121.758 136.767 121.468C136.231 120.904 135.726 120.34 135.259 119.761C133.383 117.494 131.653 115.111 130.079 112.626C129.295 111.402 128.54 110.166 127.813 108.917C127.083 107.655 126.38 106.42 125.698 105.089L130.986 102.314Z" fill="#B55B52"/>
<path d="M102.877 96.9562C98.9586 97.8527 94.4707 108.53 94.4707 108.53L102.335 113.898C104.291 111.093 106.027 108.141 107.526 105.068C109.851 100.204 106.882 96.0382 102.877 96.9562Z" fill="#3D3FDF"/>
<path opacity="0.2" d="M105.68 103.763L101.965 113.662L102.33 113.92C102.33 113.92 103.94 111.66 105.68 108.611V103.763Z" fill="black"/>
<path d="M126.283 97.1655C126.283 97.1655 130.728 102.19 126.53 133.272H104.182C104.032 129.842 106.184 113.115 102.877 96.9508C105.347 96.4753 107.845 96.1597 110.355 96.006C113.52 95.8207 116.693 95.8207 119.857 96.006C122.026 96.2244 124.175 96.6121 126.283 97.1655Z" fill="#3D3FDF"/>
<path opacity="0.2" d="M123.798 106.157C124.381 109.685 125.905 112.99 128.21 115.724C128.302 113.721 128.339 111.923 128.334 110.318L123.798 106.157Z" fill="black"/>
<path d="M121.86 100.558C121.323 104.515 129.107 114.618 129.107 114.618L136.939 109.25C136.939 109.25 134.765 103.683 131.109 100.032C126.944 95.845 122.472 96.253 121.86 100.558Z" fill="#3D3FDF"/>
<path d="M151.385 119.922L154.574 118.612L157.854 121.092C157.854 121.092 154.724 123.862 151.879 122.783L151.385 119.922Z" fill="#B55B52"/>
<path d="M156.678 118.483L159.083 120.201L157.838 121.092L154.558 118.612L156.678 118.483Z" fill="#B55B52"/>
<path d="M112.685 79.7777C111.569 83.7717 110.71 86.0532 111.987 88.7427C113.904 92.7958 119.353 92.683 121.65 89.1078C123.712 85.8868 125.193 79.8958 121.908 77.0131C121.187 76.3724 120.313 75.9267 119.371 75.7185C118.429 75.5103 117.45 75.5464 116.526 75.8234C115.601 76.1005 114.763 76.6092 114.091 77.3013C113.419 77.9934 112.935 78.8459 112.685 79.7777Z" fill="#B55B52"/>
<path d="M121.189 79.8207C119.578 84.4052 117.683 89.4406 113.056 88.4851C110.071 87.8677 109.835 83.0631 108.761 80.8782C107.811 78.9618 107.87 75.1074 109.835 75.0591C108.954 73.7814 113.405 69.1056 116.443 71.575C117.221 70.5014 122.831 67.3395 126.986 72.3588C130.9 77.1044 128.983 81.0608 121.189 79.8207Z" fill="#263238"/>
<path d="M117.565 82.7518C117.457 83.7758 117.687 84.8069 118.22 85.6882C118.934 86.837 119.981 86.3968 120.367 85.2212C120.711 84.1475 120.748 82.2955 119.755 81.5493C118.762 80.8031 117.715 81.5171 117.565 82.7518Z" fill="#B55B52"/>
<path d="M151.857 188.898C152.394 188.898 152.931 188.823 153.087 188.582C153.131 188.518 153.155 188.442 153.155 188.364C153.155 188.287 153.131 188.211 153.087 188.147C153.015 188.034 152.904 187.952 152.775 187.916C152.077 187.728 150.628 188.56 150.558 188.598C150.54 188.607 150.525 188.622 150.516 188.64C150.508 188.659 150.505 188.68 150.51 188.7C150.513 188.719 150.522 188.737 150.536 188.751C150.549 188.765 150.566 188.775 150.585 188.78C151.005 188.857 151.431 188.896 151.857 188.898ZM152.523 188.088C152.585 188.079 152.649 188.079 152.711 188.088C152.751 188.095 152.79 188.112 152.823 188.136C152.857 188.16 152.884 188.191 152.904 188.227C152.974 188.351 152.952 188.41 152.904 188.442C152.711 188.716 151.653 188.721 150.875 188.609C151.385 188.33 151.945 188.153 152.523 188.088Z" fill="#3D3FDF"/>
<path d="M150.596 188.78H150.639C151.144 188.555 152.142 187.653 152.062 187.17C152.062 187.057 151.965 186.923 151.697 186.891C151.6 186.882 151.503 186.893 151.411 186.923C151.319 186.952 151.233 187 151.16 187.062C150.623 187.497 150.516 188.625 150.51 188.673C150.508 188.69 150.511 188.707 150.517 188.723C150.524 188.739 150.534 188.753 150.548 188.764C150.563 188.773 150.579 188.778 150.596 188.78ZM151.616 187.089H151.675C151.852 187.089 151.863 187.181 151.868 187.202C151.917 187.487 151.235 188.195 150.72 188.501C150.762 188.029 150.95 187.58 151.256 187.218C151.356 187.133 151.484 187.087 151.616 187.089Z" fill="#3D3FDF"/>
<path d="M145.738 188.684H149.914L150.864 179.005H146.688L145.738 188.684Z" fill="#B55B52"/>
<path d="M150.15 188.201H145.593C145.509 188.201 145.427 188.23 145.362 188.283C145.297 188.335 145.251 188.409 145.233 188.49L144.406 192.184C144.385 192.274 144.385 192.367 144.405 192.458C144.425 192.548 144.466 192.632 144.524 192.704C144.582 192.776 144.656 192.834 144.74 192.873C144.823 192.912 144.915 192.932 145.007 192.93C146.65 192.903 149.028 192.807 151.095 192.807C153.516 192.807 155.604 192.935 158.439 192.935C160.157 192.935 160.635 191.201 159.915 191.046C156.646 190.332 153.978 190.257 151.154 188.512C150.855 188.318 150.507 188.21 150.15 188.201Z" fill="#263238"/>
<path opacity="0.2" d="M150.859 179.01L150.376 183.997H146.194L146.682 179.01H150.859Z" fill="black"/>
<path d="M135.114 188.893C135.291 188.916 135.471 188.904 135.643 188.857C135.816 188.81 135.977 188.729 136.118 188.619C136.167 188.551 136.194 188.47 136.194 188.386C136.194 188.302 136.167 188.22 136.118 188.152C136.086 188.093 136.042 188.042 135.988 188.002C135.934 187.962 135.872 187.935 135.806 187.921C135.194 187.776 134.04 188.566 133.992 188.598C133.977 188.61 133.965 188.625 133.957 188.643C133.95 188.661 133.947 188.681 133.949 188.7C133.953 188.718 133.962 188.735 133.975 188.749C133.989 188.762 134.006 188.771 134.024 188.775C134.382 188.853 134.747 188.893 135.114 188.893ZM135.651 188.099C135.69 188.093 135.73 188.093 135.769 188.099C135.807 188.104 135.844 188.119 135.875 188.141C135.907 188.164 135.933 188.193 135.951 188.227C136.043 188.394 135.989 188.458 135.951 188.485C135.774 188.716 134.921 188.721 134.293 188.619C134.696 188.346 135.157 188.168 135.64 188.099H135.651Z" fill="#3D3FDF"/>
<path d="M134.051 188.78H134.094C134.529 188.544 135.366 187.632 135.275 187.17C135.261 187.096 135.222 187.029 135.164 186.981C135.106 186.933 135.033 186.907 134.958 186.907C134.883 186.898 134.807 186.904 134.735 186.927C134.663 186.949 134.596 186.986 134.54 187.036C134.056 187.433 133.954 188.646 133.949 188.689C133.949 188.707 133.953 188.725 133.961 188.741C133.97 188.757 133.982 188.77 133.997 188.78C134.015 188.786 134.034 188.786 134.051 188.78ZM134.894 187.089H134.937C135.066 187.089 135.076 187.164 135.082 187.191C135.135 187.465 134.599 188.158 134.169 188.485C134.198 188.009 134.37 187.552 134.663 187.175C134.727 187.12 134.809 187.089 134.894 187.089Z" fill="#3D3FDF"/>
<path d="M129.262 188.684H133.439L135.538 179.005H131.361L129.262 188.684Z" fill="#B55B52"/>
<path d="M133.734 188.201H129.042C128.959 188.201 128.879 188.23 128.814 188.283C128.75 188.336 128.705 188.409 128.688 188.49L127.861 192.184C127.842 192.274 127.843 192.368 127.865 192.458C127.887 192.548 127.929 192.632 127.988 192.704C128.046 192.776 128.121 192.833 128.205 192.872C128.289 192.912 128.381 192.931 128.473 192.93C130.111 192.903 130.91 192.807 132.972 192.807C134.244 192.807 135.871 192.935 137.626 192.935C139.382 192.935 139.607 191.201 138.888 191.046C135.667 190.342 135.447 189.371 134.416 188.442C134.226 188.281 133.983 188.195 133.734 188.201Z" fill="#263238"/>
<g opacity="0.2">
<path d="M131.362 179.01H135.538L134.454 183.997H130.277L131.362 179.01Z" fill="black"/>
</g>
<path d="M126.53 133.278C126.53 133.278 157.827 136.59 157.483 152.555C157.262 162.582 155.334 172.497 151.782 181.877H145.577C145.577 181.877 145.893 171.747 145.684 155.4C145.62 150.499 135.726 148.883 126.058 148.314C121.963 148.057 118.023 146.66 114.68 144.282C111.337 141.904 108.726 138.639 107.14 134.856L106.48 133.278H126.53Z" fill="#263238"/>
<path d="M153.302 180.213C153.334 180.213 152.899 183.149 152.899 183.149H144.31L144.074 180.529L153.302 180.213Z" fill="#3D3FDF"/>
<path d="M119.83 133.278C119.83 133.278 142.517 140.793 143.091 150.113C144.165 167.259 135.731 181.877 135.731 181.877H129.467C129.467 181.877 131.845 174.63 132.687 159.094C133.761 139.58 97.3482 159.062 104.171 133.278H119.83Z" fill="#263238"/>
<path d="M137.626 180.213C137.658 180.213 136.837 183.149 136.837 183.149H128.248L128.404 180.529L137.626 180.213Z" fill="#3D3FDF"/>
<path d="M136.193 149.715H101.299C101.299 148.659 101.719 147.646 102.466 146.899C103.213 146.152 104.226 145.732 105.282 145.732H132.21C133.266 145.732 134.279 146.152 135.026 146.899C135.773 147.646 136.193 148.659 136.193 149.715Z" fill="#3D3FDF"/>
<path d="M102.915 149.71L97.6541 193.816H98.7814L105.454 149.71H102.915Z" fill="#3D3FDF"/>
<path opacity="0.4" d="M102.915 149.71L97.6541 193.816H98.7814L105.454 149.71H102.915Z" fill="black"/>
<path d="M109.953 149.71L109.851 193.816H110.973L112.492 149.71H109.953Z" fill="#3D3FDF"/>
<path opacity="0.4" d="M109.953 149.71L109.851 193.816H110.973L112.492 149.71H109.953Z" fill="black"/>
<path d="M134.577 149.71L139.838 193.816H138.711L132.043 149.71H134.577Z" fill="#3D3FDF"/>
<path opacity="0.4" d="M134.577 149.71L139.838 193.816H138.711L132.043 149.71H134.577Z" fill="black"/>
<path d="M127.539 149.71L127.641 193.816H126.519L125 149.71H127.539Z" fill="#3D3FDF"/>
<path opacity="0.4" d="M127.539 149.71L127.641 193.816H126.519L125 149.71H127.539Z" fill="black"/>
</svg>
