<svg width="376" height="280" viewBox="0 0 376 280" fill="none" xmlns="http://www.w3.org/2000/svg">
<path d="M187.889 280C268.368 280 333.609 276.191 333.609 271.492C333.609 266.794 268.368 262.985 187.889 262.985C107.411 262.985 42.1699 266.794 42.1699 271.492C42.1699 276.191 107.411 280 187.889 280Z" fill="#F5F5F5"/>
<path d="M273.567 36.0747C267.502 33.3992 260.482 31.8886 256.965 37.638C254.657 41.3958 253.508 49.0767 249.449 53.2102C249.107 53.515 248.831 53.8874 248.64 54.3039C248.448 54.7204 248.345 55.1719 248.337 55.6302C248.333 55.6878 248.333 55.7455 248.337 55.8031C248.404 58.1179 250.261 61.2143 255.033 62.3567C254.08 61.7395 253.266 60.9307 252.643 59.9818C254.609 60.8312 256.725 61.2759 258.866 61.2895C264.488 61.2293 268.809 61.6577 271.387 62.9955C273.965 64.3333 278.655 58.4862 278.444 55.8256C279.459 57.3288 280.699 55.8256 281.097 52.128C282.187 42.6208 279.098 34.8271 273.567 36.0747Z" fill="#263238"/>
<path d="M259.761 65.7913C258.789 65.7898 257.839 65.5003 257.032 64.9593C256.225 64.4183 255.596 63.6501 255.225 62.7519C254.854 61.8536 254.758 60.8656 254.948 59.9126C255.139 58.9597 255.608 58.0846 256.295 57.3979C256.983 56.7113 257.859 56.2439 258.812 56.0548C259.765 55.8658 260.753 55.9636 261.651 56.3358C262.549 56.708 263.316 57.338 263.856 58.1462C264.395 58.9543 264.683 59.9043 264.683 60.8761C264.681 62.1804 264.162 63.4306 263.239 64.3521C262.316 65.2737 261.065 65.7913 259.761 65.7913ZM259.761 56.3217C258.86 56.3217 257.979 56.5888 257.23 57.0892C256.481 57.5897 255.898 58.301 255.553 59.1332C255.208 59.9654 255.118 60.8812 255.294 61.7646C255.469 62.6481 255.903 63.4596 256.54 64.0966C257.177 64.7335 257.989 65.1673 258.872 65.343C259.756 65.5188 260.671 65.4286 261.504 65.0839C262.336 64.7391 263.047 64.1554 263.548 63.4064C264.048 62.6575 264.315 61.7769 264.315 60.8761C264.315 59.6682 263.835 58.5098 262.981 57.6556C262.127 56.8015 260.969 56.3217 259.761 56.3217Z" fill="#3D3FDF"/>
<path d="M254.68 82.8817C252.809 86.5606 250.716 90.122 248.412 93.5463C247.249 95.3043 245.995 97.0002 244.654 98.6268C243.238 100.427 241.602 102.043 239.784 103.437C239.438 103.699 239.068 103.928 238.679 104.121C238.203 104.359 237.698 104.533 237.176 104.639C236.152 104.831 235.095 104.753 234.11 104.414C232.724 103.888 231.482 103.04 230.487 101.941C229.685 101.09 228.963 100.166 228.33 99.1829C227.722 98.251 227.18 97.3191 226.684 96.3796C224.79 92.6781 223.279 88.7923 222.175 84.7831L225.459 83.5506C227.195 87.0234 229.137 90.3889 231.276 93.6289C232.237 95.1058 233.37 96.4632 234.651 97.6723C235.024 98.0517 235.483 98.3353 235.989 98.499C236.079 98.499 235.989 98.4464 235.883 98.4614C235.778 98.4765 235.793 98.4614 235.786 98.4614C235.778 98.4614 235.741 98.4614 235.929 98.3262C237.199 97.1617 238.34 95.8641 239.333 94.4556C240.438 92.9525 241.498 91.3517 242.535 89.7284C243.572 88.105 244.549 86.4065 245.541 84.723C246.533 83.0395 247.472 81.2959 248.382 79.6349L254.68 82.8817Z" fill="#B55B52"/>
<path d="M252.598 72.9987C249.652 72.8935 244.436 83.6257 244.436 83.6257L250.05 96.1993C250.05 96.1993 261.061 81.7093 259.821 78.0792C258.535 74.2839 256.897 73.149 252.598 72.9987Z" fill="#3D3FDF"/>
<path opacity="0.6" d="M252.598 72.9987C249.652 72.8935 244.436 83.6257 244.436 83.6257L250.05 96.1993C250.05 96.1993 261.061 81.7093 259.821 78.0792C258.535 74.2839 256.897 73.149 252.598 72.9987Z" fill="white"/>
<path d="M224.986 78.5076L225.858 86.2712L223.813 87.6992C221.01 87.0528 219.838 82.7539 219.838 82.7539L218.575 79.9957C218.304 79.4005 218.222 78.7368 218.339 78.0934C218.456 77.4501 218.766 76.8577 219.229 76.3958L219.8 75.8321C220.063 75.5645 220.381 75.358 220.733 75.2273C221.084 75.0966 221.46 75.0448 221.834 75.0756C222.207 75.1065 222.57 75.2192 222.895 75.4058C223.22 75.5924 223.501 75.8482 223.716 76.1553L224.535 77.3277C224.782 77.6769 224.937 78.0827 224.986 78.5076Z" fill="#B55B52"/>
<path d="M266.848 265.645H259.918L259.287 249.592H266.224L266.848 265.645Z" fill="#B55B52"/>
<path d="M259.287 264.841H267.081C267.21 264.839 267.335 264.887 267.429 264.976C267.523 265.064 267.578 265.186 267.584 265.315L267.847 271.477C267.843 271.803 267.712 272.114 267.482 272.345C267.252 272.575 266.94 272.706 266.615 272.71C263.902 272.665 262.609 272.507 259.182 272.507C257.077 272.507 252.23 272.725 249.321 272.725C246.413 272.725 246.541 269.846 247.781 269.583C253.335 268.419 256.1 266.81 258.085 265.269C258.428 264.999 258.85 264.848 259.287 264.841Z" fill="#263238"/>
<g opacity="0.2">
<path d="M259.287 249.6L259.61 257.874H266.547L266.224 249.6H259.287Z" fill="black"/>
</g>
<path d="M249.817 76.4333C249.667 80.8149 250.426 91.0511 255.033 114.891L283.179 114.049C282.427 103.407 282.172 96.5525 285.99 76.5686C286.109 75.9526 286.099 75.3187 285.962 74.7065C285.825 74.0943 285.563 73.5169 285.193 73.0105C284.823 72.504 284.352 72.0794 283.81 71.7631C283.268 71.4469 282.667 71.2458 282.044 71.1724C279.977 70.9319 277.46 70.7065 274.919 70.6614C270.657 70.4836 266.387 70.6117 262.143 71.0447C258.889 71.4355 255.379 72.1119 253.072 72.6004C252.178 72.7818 251.371 73.2584 250.781 73.9535C250.191 74.6487 249.851 75.5221 249.817 76.4333Z" fill="#3D3FDF"/>
<path opacity="0.7" d="M249.817 76.4333C249.667 80.8149 250.426 91.0511 255.033 114.891L283.179 114.049C282.427 103.407 282.172 96.5525 285.99 76.5686C286.109 75.9526 286.099 75.3187 285.962 74.7065C285.825 74.0943 285.563 73.5169 285.193 73.0105C284.823 72.504 284.352 72.0794 283.81 71.7631C283.268 71.4469 282.667 71.2458 282.044 71.1724C279.977 70.9319 277.46 70.7065 274.919 70.6614C270.657 70.4836 266.387 70.6117 262.143 71.0447C258.889 71.4355 255.379 72.1119 253.072 72.6004C252.178 72.7818 251.371 73.2584 250.781 73.9535C250.191 74.6487 249.851 75.5221 249.817 76.4333Z" fill="white"/>
<path d="M273.221 56.3066C272.537 60.4477 271.958 68.0009 274.919 70.6614C272.695 74.1682 269.189 76.668 265.149 77.6283C258.663 74.3365 262.143 71.0447 262.143 71.0447C266.697 69.8121 266.479 66.4151 265.585 63.2435L273.221 56.3066Z" fill="#B55B52"/>
<path d="M265.157 77.6283L265.998 75.9824L270.5 77.0045L265.157 77.6283Z" fill="#3D3FDF"/>
<path d="M265.999 75.9824C267.442 75.321 274.138 70.962 274.401 69.6017C275.705 69.7829 276.981 70.1211 278.204 70.6088C278.204 70.6088 277.001 75.9824 270.5 79.6274C270.047 78.7382 269.413 77.9542 268.637 77.3262C267.861 76.6983 266.963 76.2404 265.999 75.9824Z" fill="white"/>
<path d="M265.157 77.6283L264.781 75.9824L262.015 76.1778L265.157 77.6283Z" fill="#3D3FDF"/>
<path d="M264.781 75.9824C262.526 74.4793 263.368 71.3979 263.586 70.0376C262.458 70.152 261.353 70.4253 260.302 70.8493C260.302 70.8493 256.912 73.9607 260.196 79.6575C261.344 78.022 262.935 76.7473 264.781 75.9824Z" fill="white"/>
<path opacity="0.2" d="M270.109 59.14L265.6 63.236C265.823 63.972 265.979 64.7266 266.066 65.4907C267.81 65.19 270.162 63.1909 270.29 61.3571C270.364 60.6132 270.302 59.8622 270.109 59.14Z" fill="black"/>
<path d="M275.408 47.5285C275.107 54.3977 275.122 57.2987 271.718 60.8987C266.592 66.2873 258.19 64.4159 256.454 57.5918C254.875 51.4441 255.642 41.2379 262.316 38.3895C263.784 37.7557 265.39 37.5077 266.982 37.669C268.573 37.8302 270.097 38.3954 271.408 39.3109C272.72 40.2265 273.776 41.4619 274.476 42.9001C275.176 44.3383 275.497 45.9314 275.408 47.5285Z" fill="#B55B52"/>
<path d="M270.5 40.2609C268.193 44.1314 264.909 39.2087 262.293 42.1548C260.197 44.5147 256.762 42.0346 254.778 48.7685C255.469 42.9815 256.439 37.8634 262.354 36.1649C265.999 35.1127 272.973 34.7144 270.5 40.2609Z" fill="#263238"/>
<path d="M271.68 37.5779C269.659 38.9833 267.584 41.005 267.832 43.4776C268.081 45.9502 271.628 44.868 272.101 46.6041C272.575 48.3401 269.982 51.9927 273.747 52.3535C278.046 49.956 279.249 49.4299 278.467 45.7473C277.685 42.0646 274.965 37.0893 271.68 37.5779Z" fill="#263238"/>
<path d="M254.973 114.89C254.973 114.89 252.252 166.094 252.11 187.138C251.967 209.038 258.122 256.281 258.122 256.281H267.494C267.494 256.281 265.713 208.542 267.156 186.942C268.727 163.396 274.205 114.282 274.205 114.282L254.973 114.89Z" fill="#3D3FDF"/>
<path d="M268.283 256.604H257.28L256.829 253.094L269.192 252.666L268.283 256.604Z" fill="#263238"/>
<path opacity="0.2" d="M272.229 132.665C271.222 131.402 269.892 132.064 268.156 135.671C262.233 147.959 265.24 167.552 267.772 178.84C268.915 164.771 270.794 146.26 272.229 132.665Z" fill="black"/>
<path d="M263.797 50.1589C263.797 50.7151 263.518 51.1735 263.15 51.181C262.782 51.1885 262.481 50.7376 262.474 50.1815C262.466 49.6253 262.752 49.1593 263.113 49.1518C263.473 49.1443 263.797 49.6028 263.797 50.1589Z" fill="#263238"/>
<path d="M257.498 50.1063C257.498 50.6624 257.213 51.1209 256.852 51.1284C256.491 51.1359 256.183 50.685 256.168 50.1288C256.153 49.5727 256.454 49.1067 256.814 49.1067C257.175 49.1067 257.483 49.5426 257.498 50.1063Z" fill="#263238"/>
<path d="M256.98 49.1293L255.627 48.7685C255.627 48.7685 256.333 49.8057 256.98 49.1293Z" fill="#263238"/>
<path d="M259.693 50.6173C259.22 51.9038 258.57 53.1179 257.761 54.2248C258.05 54.4238 258.378 54.5572 258.724 54.6157C259.069 54.6741 259.423 54.6561 259.761 54.563L259.693 50.6173Z" fill="#A02724"/>
<path d="M263.12 56.4043C262.847 56.4531 262.57 56.4782 262.293 56.4795C262.272 56.4805 262.251 56.4772 262.231 56.4697C262.211 56.4622 262.192 56.4508 262.177 56.436C262.161 56.4213 262.149 56.4035 262.141 56.3839C262.132 56.3642 262.128 56.3431 262.128 56.3217C262.128 56.2791 262.144 56.2381 262.174 56.2073C262.203 56.1765 262.243 56.1583 262.286 56.1563C262.982 56.1596 263.67 55.9987 264.293 55.6866C264.916 55.3745 265.456 54.9201 265.871 54.3601C265.896 54.3296 265.932 54.3093 265.971 54.303C266.011 54.2967 266.051 54.3048 266.085 54.3258C266.119 54.3468 266.144 54.3794 266.155 54.4174C266.167 54.4555 266.165 54.4965 266.149 54.533C265.793 55.0299 265.342 55.4513 264.822 55.7725C264.302 56.0938 263.724 56.3085 263.12 56.4043Z" fill="#263238"/>
<path d="M277.362 53.9994C277.09 54.5993 276.703 55.1398 276.221 55.5898C275.74 56.0399 275.176 56.3907 274.559 56.6223C272.905 57.231 271.936 55.7881 272.304 54.1497C272.612 52.6466 273.807 50.5873 275.558 50.685C275.932 50.7153 276.291 50.8381 276.605 51.0423C276.919 51.2464 277.177 51.5256 277.356 51.8545C277.535 52.1834 277.63 52.5517 277.631 52.9262C277.632 53.3007 277.539 53.6695 277.362 53.9994Z" fill="#B55B52"/>
<path d="M274.461 65.7913C273.489 65.7913 272.538 65.503 271.73 64.9629C270.922 64.4228 270.292 63.6552 269.92 62.757C269.548 61.8589 269.45 60.8706 269.64 59.9172C269.83 58.9637 270.298 58.0879 270.985 57.4005C271.673 56.7131 272.548 56.245 273.502 56.0554C274.455 55.8657 275.444 55.963 276.342 56.3351C277.24 56.7071 278.008 57.3371 278.548 58.1454C279.088 58.9537 279.376 59.904 279.376 60.8761C279.374 62.1791 278.856 63.4281 277.934 64.3495C277.013 65.2708 275.764 65.7893 274.461 65.7913ZM274.461 56.3217C273.56 56.3202 272.678 56.586 271.928 57.0856C271.179 57.5851 270.594 58.2959 270.248 59.128C269.902 59.96 269.811 60.876 269.985 61.76C270.16 62.644 270.594 63.4562 271.23 64.0939C271.867 64.7316 272.678 65.1661 273.562 65.3425C274.446 65.5188 275.362 65.429 276.194 65.0846C277.027 64.7401 277.739 64.1563 278.24 63.4072C278.74 62.658 279.008 61.7772 279.008 60.8761C279.006 59.6701 278.526 58.5139 277.674 57.6605C276.822 56.807 275.667 56.3256 274.461 56.3217Z" fill="#3D3FDF"/>
<path d="M266.292 47.1376C266.223 47.1487 266.153 47.138 266.091 47.107C266.029 47.076 265.978 47.0262 265.946 46.9648C265.239 45.6195 263.3 45.3564 263.278 45.3564C263.195 45.3397 263.122 45.2922 263.074 45.2236C263.025 45.155 263.005 45.0705 263.016 44.9872C263.028 44.9039 263.07 44.8281 263.136 44.7752C263.201 44.7224 263.284 44.6964 263.368 44.7026C263.458 44.7026 265.66 45.0182 266.525 46.6566C266.546 46.6951 266.559 46.7373 266.563 46.7808C266.568 46.8244 266.564 46.8684 266.551 46.9104C266.539 46.9523 266.518 46.9914 266.49 47.0252C266.462 47.0591 266.428 47.0871 266.389 47.1076L266.292 47.1376Z" fill="#263238"/>
<path d="M255.529 46.5965C255.473 46.6078 255.415 46.6041 255.361 46.5856C255.307 46.5671 255.259 46.5346 255.221 46.4913C255.192 46.4587 255.17 46.4205 255.156 46.3791C255.142 46.3377 255.137 46.2938 255.14 46.2503C255.144 46.2067 255.156 46.1643 255.176 46.1257C255.197 46.087 255.225 46.0529 255.259 46.0253C255.647 45.6779 256.113 45.4283 256.618 45.2976C257.123 45.1669 257.651 45.1587 258.16 45.2738C258.244 45.2999 258.314 45.3576 258.356 45.4348C258.398 45.5119 258.409 45.6025 258.385 45.6871C258.373 45.7283 258.353 45.7666 258.326 45.7999C258.299 45.8332 258.266 45.8608 258.228 45.8811C258.19 45.9014 258.149 45.914 258.106 45.9181C258.063 45.9222 258.02 45.9178 257.979 45.9051C257.575 45.8183 257.156 45.8296 256.757 45.9381C256.358 46.0467 255.991 46.2492 255.687 46.5289C255.641 46.5638 255.587 46.587 255.529 46.5965Z" fill="#263238"/>
<path d="M290.296 79.4922C291.559 83.1072 292.671 86.7146 293.678 90.4048C294.189 92.2461 294.678 94.1025 295.091 96.0039C295.294 96.9584 295.497 97.9204 295.67 98.9199C295.859 99.9862 295.985 101.063 296.045 102.144V102.618V103.174C296.045 103.504 296 103.707 295.97 103.985C295.925 104.504 295.858 104.977 295.79 105.489C295.655 106.458 295.497 107.405 295.339 108.344C295.023 110.231 294.648 112.102 294.272 113.944C293.52 117.649 292.626 121.324 291.619 124.984L288.154 124.413C288.357 120.655 288.643 116.897 288.943 113.139L289.394 107.57C289.462 106.646 289.522 105.729 289.575 104.835C289.575 104.384 289.627 103.933 289.635 103.512C289.635 103.317 289.635 103.053 289.635 102.918V102.768V102.542C289.525 101.754 289.375 100.971 289.184 100.198C288.988 99.3483 288.763 98.484 288.522 97.6122C288.034 95.8686 287.515 94.1025 286.982 92.3513L283.607 81.7694L290.296 79.4922Z" fill="#B55B52"/>
<path d="M282.044 71.1724C291.273 72.3148 293.1 83.5882 294.415 86.4215L285.359 94.0198C285.359 94.0198 279.624 84.3773 278.79 80.6345C277.926 76.7339 278.707 70.7591 282.044 71.1724Z" fill="#3D3FDF"/>
<path opacity="0.7" d="M282.044 71.1724C291.273 72.3148 293.1 83.5882 294.415 86.4215L285.359 94.0198C285.359 94.0198 279.624 84.3773 278.79 80.6345C277.926 76.7339 278.707 70.7591 282.044 71.1724Z" fill="white"/>
<path d="M256.551 266.051C255.972 266.108 255.391 265.956 254.913 265.623C254.81 265.519 254.736 265.391 254.698 265.25C254.659 265.109 254.658 264.96 254.695 264.819C254.711 264.726 254.748 264.638 254.805 264.562C254.861 264.486 254.934 264.425 255.018 264.383C255.913 263.917 258.535 265.33 258.829 265.495C258.857 265.511 258.88 265.535 258.894 265.565C258.908 265.595 258.911 265.628 258.904 265.66C258.894 265.695 258.875 265.727 258.848 265.752C258.822 265.778 258.789 265.795 258.753 265.803C258.028 265.951 257.291 266.034 256.551 266.051ZM255.462 264.616C255.353 264.609 255.245 264.63 255.146 264.676C255.112 264.692 255.083 264.717 255.061 264.747C255.039 264.777 255.024 264.812 255.018 264.849C254.995 264.941 254.995 265.037 255.018 265.129C255.042 265.221 255.088 265.306 255.153 265.375C255.537 265.758 256.657 265.818 258.235 265.563C257.374 265.087 256.435 264.769 255.462 264.623V264.616Z" fill="#3D3FDF"/>
<path d="M258.723 265.811H258.656C257.866 265.435 256.401 263.939 256.596 263.158C256.641 262.97 256.799 262.737 257.258 262.692C257.416 262.672 257.577 262.688 257.729 262.737C257.881 262.787 258.02 262.869 258.137 262.977C258.934 263.729 258.889 265.57 258.889 265.645C258.889 265.675 258.882 265.705 258.867 265.731C258.853 265.758 258.832 265.78 258.806 265.796C258.78 265.808 258.752 265.814 258.723 265.811ZM257.355 263H257.258C256.957 263 256.92 263.15 256.912 263.188C256.784 263.661 257.776 264.834 258.565 265.345C258.587 264.58 258.355 263.829 257.904 263.21C257.831 263.14 257.745 263.085 257.651 263.049C257.557 263.013 257.456 262.996 257.355 263Z" fill="#3D3FDF"/>
<path d="M308.89 263.03L302.111 264.488L296.467 249.284L303.246 247.826L308.89 263.03Z" fill="#B55B52"/>
<path d="M301.69 263.796L309.303 262.151C309.434 262.12 309.572 262.138 309.691 262.202C309.81 262.265 309.902 262.37 309.949 262.496L312.204 268.321C312.256 268.468 312.275 268.625 312.261 268.78C312.247 268.936 312.2 269.086 312.123 269.222C312.046 269.358 311.941 269.476 311.815 269.568C311.689 269.66 311.545 269.724 311.392 269.756C308.724 270.282 307.417 270.403 304.065 271.124C302.005 271.568 298.36 272.965 295.459 272.763C292.558 272.56 292.566 269.674 293.791 269.501C299.277 268.712 299.217 266.344 300.66 264.458C300.917 264.125 301.281 263.891 301.69 263.796Z" fill="#263238"/>
<path d="M300.863 265.179C300.292 265.354 299.678 265.333 299.12 265.119C298.99 265.046 298.881 264.943 298.799 264.819C298.718 264.695 298.668 264.553 298.654 264.405C298.636 264.316 298.643 264.223 298.674 264.137C298.704 264.052 298.757 263.975 298.826 263.917C299.578 263.285 302.584 264.075 302.907 264.172C302.941 264.179 302.972 264.196 302.995 264.222C303.019 264.248 303.033 264.28 303.035 264.315C303.037 264.349 303.029 264.383 303.011 264.412C302.994 264.442 302.968 264.466 302.938 264.48C302.269 264.776 301.575 265.01 300.863 265.179ZM299.36 264.044C299.257 264.062 299.159 264.103 299.075 264.165C299.047 264.189 299.027 264.219 299.015 264.254C299.003 264.288 299 264.324 299.007 264.36C299.015 264.458 299.046 264.552 299.099 264.634C299.151 264.717 299.223 264.785 299.307 264.834C299.804 265.112 300.938 264.939 302.381 264.368C301.391 264.082 300.358 263.973 299.33 264.044H299.36Z" fill="#3D3FDF"/>
<path d="M302.877 264.488C301.983 264.3 300.051 263.188 299.999 262.391C299.999 262.203 300.066 261.955 300.502 261.812C300.657 261.761 300.821 261.741 300.984 261.755C301.147 261.77 301.305 261.817 301.449 261.895C302.464 262.421 303.043 264.202 303.065 264.277C303.073 264.305 303.074 264.334 303.067 264.361C303.06 264.389 303.047 264.414 303.028 264.435C303.011 264.458 302.987 264.475 302.96 264.484C302.934 264.494 302.905 264.495 302.877 264.488ZM300.623 262.098H300.525C300.239 262.196 300.247 262.316 300.247 262.353C300.247 262.827 301.622 263.744 302.562 264.059C302.32 263.306 301.853 262.645 301.224 262.166C301.051 262.081 300.855 262.057 300.668 262.098H300.623Z" fill="#3D3FDF"/>
<g opacity="0.2">
<path d="M296.467 249.291L299.375 257.13L306.154 255.665L303.246 247.826L296.467 249.291Z" fill="black"/>
</g>
<path d="M283.179 114.049C289.943 124.781 288.042 164.253 289.109 185.326C295.452 204.018 306.643 253.921 306.643 253.921L297.481 255.898C297.481 255.898 277.272 206.37 273.078 185.214C268.449 161.863 262.812 114.049 262.812 114.049H283.179Z" fill="#3D3FDF"/>
<path d="M307.327 254.116L296.579 256.439L295.452 253.087L307.447 250.058L307.327 254.116Z" fill="#263238"/>
<path d="M263.293 49.1819L261.94 48.8211C261.94 48.8211 262.647 49.8583 263.293 49.1819Z" fill="#263238"/>
<path d="M283.547 112.388L284.344 114.883C284.449 115.078 284.224 115.281 283.893 115.296L254.928 116.153C254.68 116.153 254.462 116.048 254.447 115.883L254.116 113.372C254.116 113.199 254.304 113.049 254.582 113.034L283.081 112.192C283.169 112.181 283.259 112.193 283.341 112.227C283.423 112.262 283.494 112.317 283.547 112.388Z" fill="#263238"/>
<path d="M279.812 115.687H280.564C280.714 115.687 280.827 115.604 280.819 115.507L280.361 112.245C280.361 112.147 280.21 112.072 280.06 112.08H279.308C279.158 112.08 279.045 112.162 279.06 112.26L279.511 115.522C279.526 115.619 279.662 115.695 279.812 115.687Z" fill="#3D3FDF"/>
<path d="M257.085 116.364H257.836C257.987 116.364 258.099 116.281 258.084 116.183L257.633 112.921C257.633 112.824 257.483 112.749 257.333 112.756H256.581C256.431 112.756 256.318 112.839 256.326 112.936L256.784 116.198C256.799 116.296 256.935 116.371 257.085 116.364Z" fill="#3D3FDF"/>
<path d="M268.449 116.025H269.2C269.351 116.025 269.463 115.943 269.448 115.845L268.997 112.583C268.997 112.486 268.847 112.41 268.697 112.418H267.945C267.795 112.418 267.682 112.501 267.697 112.598L268.148 115.86C268.163 115.958 268.306 116.033 268.449 116.025Z" fill="#3D3FDF"/>
<path d="M288.598 123.255L283.525 128.764L290.567 129.072C290.567 129.155 292.859 125.315 291.424 122.789L288.598 123.255Z" fill="#B55B52"/>
<path d="M285.373 134.529H287.418C287.868 134.525 288.305 134.377 288.665 134.106C289.025 133.836 289.288 133.457 289.417 133.026L290.582 129.08L283.54 128.772L283.254 132.274C283.234 132.564 283.275 132.854 283.373 133.128C283.47 133.401 283.623 133.652 283.822 133.863C284.021 134.075 284.262 134.243 284.529 134.358C284.795 134.472 285.083 134.53 285.373 134.529Z" fill="#B55B52"/>
<path d="M105.466 264.879L98.9951 264.781L99.401 249.735L105.872 249.832L105.466 264.879Z" fill="#FFC3BD"/>
<path d="M98.9199 264.029L105.992 264.142C106.117 264.14 106.239 264.185 106.333 264.269C106.426 264.352 106.484 264.468 106.496 264.593L107.112 270.38C107.122 270.526 107.102 270.673 107.053 270.81C107.004 270.948 106.927 271.075 106.827 271.181C106.727 271.288 106.605 271.373 106.471 271.43C106.336 271.487 106.191 271.516 106.045 271.515C103.497 271.432 99.8293 271.229 96.6202 271.177C92.8624 271.117 93.2382 271.274 88.8416 271.177C86.181 271.139 85.7527 268.434 86.895 268.17C92.0883 267.141 92.6144 267.088 97.3041 264.45C97.7965 264.171 98.3537 264.026 98.9199 264.029Z" fill="#263238"/>
<path d="M97.4243 71.0973C95.9212 75.802 94.2753 80.4467 92.5542 85.0687C91.6974 87.3835 90.8256 89.6908 89.9162 91.9906C89.0068 94.2903 88.0975 96.5901 87.1355 98.8899C86.9175 99.4385 86.6094 100.1 86.3388 100.716C86.0682 101.332 85.7676 101.926 85.4745 102.512C85.1814 103.099 84.8733 103.677 84.5576 104.241C84.242 104.805 83.9413 105.376 83.6182 105.924C82.3706 108.179 80.9952 110.253 79.6349 112.358C76.8692 116.544 73.9381 120.535 70.7816 124.428L66.6931 121.752L73.1791 108.645C75.3217 104.468 77.1944 100.158 78.7857 95.7408L83.3551 81.8295C84.8582 77.1849 86.4741 72.5328 88.105 67.9332L97.4243 71.0973Z" fill="#FFC3BD"/>
<path d="M101.776 68.0835C100.19 73.2993 94.7111 86.3238 94.7111 86.3238L82.1526 77.5607C82.1526 77.5607 84.3622 69.0831 89.33 65.0924C96.3796 59.4331 103.82 61.3571 101.776 68.0835Z" fill="#263238"/>
<path opacity="0.2" d="M94.3054 72.3223C89.6833 73.4421 86.181 78.1018 86.7447 80.7698L94.7112 86.3238C94.7112 86.3238 96.4172 79.7778 99.431 75.4187C97.7024 73.6526 95.6431 71.9992 94.3054 72.3223Z" fill="black"/>
<path d="M92.2762 84.1744C92.7271 83.8366 93.1449 83.4566 93.5238 83.0395C93.5238 83.0395 84.1969 76.5386 81.8446 76.4709C81.4352 76.9665 81.1956 77.5802 81.1606 78.222C81.1606 78.222 89.3075 84.2721 92.2762 84.1744Z" fill="#3D3FDF"/>
<path d="M68.9854 119.535L62.74 123.563L67.7378 128.997C67.7378 128.997 72.9987 126.54 72.0593 121.812L68.9854 119.535Z" fill="#FFC3BD"/>
<path d="M60.1245 129.869L63.2059 131.432C63.4587 131.56 63.7423 131.613 64.0242 131.587C64.3061 131.56 64.5747 131.455 64.7992 131.282L67.7678 129.027L62.77 123.594L59.621 127.652C59.4932 127.826 59.4042 128.025 59.3602 128.236C59.3162 128.447 59.3182 128.665 59.3659 128.876C59.4137 129.086 59.5062 129.283 59.6371 129.455C59.768 129.626 59.9342 129.768 60.1245 129.869Z" fill="#FFC3BD"/>
<path opacity="0.2" d="M99.4009 249.735L99.1904 257.491L105.669 257.596L105.879 249.84L99.4009 249.735Z" fill="black"/>
<path d="M128.682 64.8669C122.631 89.5104 125.029 115.665 124.601 120.956L89.8937 120.392C87.639 93.0653 89.8937 75.1256 91.3066 67.1892C91.5629 65.7832 92.2672 64.4979 93.3143 63.5253C94.3614 62.5527 95.6951 61.945 97.1161 61.793L97.5445 61.7479C98.4915 61.6502 99.5136 61.5675 100.551 61.5074C101.137 61.4698 101.738 61.4548 102.339 61.4398C107.276 61.5249 112.205 61.8913 117.1 62.537C118.024 62.6498 118.971 62.7926 119.881 62.9429C120.79 63.0932 121.564 63.236 122.346 63.3938C125.931 64.0928 128.682 64.8669 128.682 64.8669Z" fill="#263238"/>
<path opacity="0.2" d="M121.7 75.4338C121.166 77.8237 122.293 88.6988 124.886 91.3818C125.089 87.9021 125.405 84.2646 125.863 80.5444L121.7 75.4338Z" fill="black"/>
<path d="M116.259 45.845C115.161 50.5047 113.914 59.11 117.115 62.5145C114.447 64.8819 110.938 67.9408 105.323 67.3621C100.746 66.8961 100.814 63.3488 102.37 61.4173C107.706 60.553 107.713 56.6223 106.924 52.8796L116.259 45.845Z" fill="#FFC3BD"/>
<path opacity="0.2" d="M115.334 51.1059L111.486 49.4976L110.051 50.5798C110.201 51.1059 109.818 53.0148 110.051 53.586C110.712 55.1793 113.365 56.0136 115.078 55.743C115.051 54.1931 115.136 52.6433 115.334 51.1059Z" fill="black"/>
<path d="M112.734 25.7108C110.036 27.7099 110.028 27.9654 107.202 27.4168C104.376 26.8682 96.3873 23.9521 98.5142 30.8514C91.7953 31.2422 92.7422 38.3144 95.7485 42.2976C98.7547 46.2809 101.761 46.6642 102.107 49.9334C102.543 53.7739 109.043 54.5179 109.953 52.361L119.235 44.4396C122.316 44.6275 119.34 39.6071 120.865 36.7211C121.102 36.2729 121.23 35.7752 121.237 35.2685C121.245 34.7617 121.133 34.2603 120.911 33.805C121.776 33.3895 122.512 32.7449 123.037 31.9412C126.141 27.3792 117.115 22.4941 112.734 25.7108Z" fill="#263238"/>
<path d="M102.212 39.6972C103.024 46.078 103.174 49.8508 106.631 52.9021C111.824 57.4866 119.55 53.9618 120.663 47.4533C121.662 41.5912 120.167 32.1441 113.718 30.0623C112.291 29.6007 110.771 29.5087 109.299 29.795C107.827 30.0813 106.452 30.7365 105.302 31.6992C104.152 32.662 103.265 33.9008 102.725 35.2996C102.185 36.6985 102.008 38.2116 102.212 39.6972Z" fill="#FFC3BD"/>
<path d="M102.851 32.1216C106.21 31.37 109.292 35.2631 107.473 37.9687C105.654 40.6743 109.532 44.0413 105.466 45.7849C102.625 47.0024 101.25 44.0488 99.8745 42.0271C97.7627 38.9382 99.2733 32.9107 102.851 32.1216Z" fill="#263238"/>
<path d="M99.5664 31.3023C103.67 33.5119 104.669 35.6614 110.765 33.557C114.365 32.3245 115.274 35.1578 119.904 34.1583C120.798 28.6944 114.425 27.4844 111.208 28.0857C107.991 28.6869 99.5664 31.3023 99.5664 31.3023Z" fill="#263238"/>
<path d="M99.5662 32.3996C99.4421 32.3924 99.3202 32.3645 99.2054 32.317C94.8088 30.8139 94.8689 27.4995 94.8765 27.3567C94.8919 27.0689 95.0177 26.7982 95.2277 26.6009C95.4377 26.4035 95.7156 26.2947 96.0038 26.297C96.2909 26.3068 96.5626 26.4288 96.7608 26.6368C96.9589 26.8447 97.0676 27.1221 97.0635 27.4093C97.0635 27.522 97.1311 29.3032 99.9044 30.2427C100.149 30.3273 100.356 30.4958 100.489 30.7184C100.622 30.941 100.671 31.2034 100.629 31.459C100.586 31.7146 100.455 31.947 100.258 32.1151C100.061 32.2831 99.8102 32.3759 99.5511 32.3771L99.5662 32.3996Z" fill="#263238"/>
<path d="M101.175 45.8976C101.947 47.14 103.135 48.0691 104.527 48.5205C106.195 48.9714 106.593 47.1452 105.759 45.2963C105.008 43.6354 103.241 41.3958 101.738 41.764C100.235 42.1323 100.107 44.2667 101.175 45.8976Z" fill="#FFC3BD"/>
<path d="M110.013 184.793C109.75 152.168 116.972 120.835 116.972 120.835L89.9163 120.399C89.9163 120.399 93.0277 167.522 94.1099 187.288C95.2373 207.805 96.808 255.988 96.808 255.988L107.788 256.153C107.788 256.153 111.531 210.541 110.013 184.793Z" fill="#3D3FDF"/>
<path opacity="0.2" d="M111.088 138.782C103.377 149.342 106.841 169.198 110.005 183.23C110.129 167.754 111.445 152.312 113.944 137.039L111.088 138.782Z" fill="black"/>
<path d="M96.1241 256.191L109.186 256.394L109.923 252.162L95.365 251.711L96.1241 256.191Z" fill="#263238"/>
<path d="M112.778 41.253C112.778 41.7715 113.117 42.1774 113.455 42.1473C113.793 42.1173 114.049 41.6813 114.011 41.1553C113.973 40.6292 113.673 40.2308 113.335 40.2609C112.996 40.291 112.733 40.7269 112.778 41.253Z" fill="#263238"/>
<path d="M118.911 40.8095C118.949 41.3356 119.249 41.734 119.595 41.7114C119.941 41.6889 120.181 41.2379 120.151 40.7194C120.121 40.2008 119.813 39.7949 119.467 39.8175C119.122 39.84 118.881 40.291 118.911 40.8095Z" fill="#263238"/>
<path d="M117.115 40.8922C117.842 42.4423 118.78 43.884 119.904 45.1761C119.039 46.1005 117.438 45.8225 117.438 45.8225L117.115 40.8922Z" fill="#ED847E"/>
<path d="M113.974 47.3481C113.388 47.3206 112.814 47.173 112.288 46.9145C111.762 46.6559 111.294 46.2919 110.915 45.845C110.898 45.8119 110.893 45.7739 110.901 45.7375C110.909 45.7012 110.93 45.6689 110.959 45.6464C110.989 45.6239 111.026 45.6127 111.063 45.6146C111.1 45.6166 111.136 45.6316 111.163 45.6571C111.592 46.1433 112.131 46.5208 112.734 46.7586C113.338 46.9963 113.989 47.0876 114.635 47.0249C114.655 47.0229 114.676 47.025 114.695 47.0311C114.715 47.0373 114.733 47.0474 114.748 47.0607C114.764 47.0741 114.776 47.0905 114.785 47.1089C114.794 47.1273 114.799 47.1473 114.8 47.1677C114.802 47.2084 114.789 47.2483 114.762 47.2791C114.736 47.3099 114.698 47.3293 114.657 47.3331C114.43 47.3531 114.202 47.3582 113.974 47.3481Z" fill="#263238"/>
<path d="M111.29 39.2388C111.237 39.239 111.185 39.2233 111.14 39.1937C111.106 39.1717 111.076 39.143 111.053 39.1092C111.03 39.0755 111.014 39.0374 111.007 38.9973C110.999 38.9572 110.999 38.916 111.008 38.8761C111.017 38.8362 111.034 38.7985 111.057 38.7653C111.315 38.3489 111.668 38 112.088 37.7477C112.507 37.4954 112.981 37.347 113.47 37.3148C113.552 37.3148 113.63 37.3473 113.688 37.4051C113.746 37.4629 113.778 37.5412 113.778 37.623C113.778 37.7047 113.746 37.7831 113.688 37.8408C113.63 37.8986 113.552 37.9311 113.47 37.9311C113.083 37.9618 112.708 38.0841 112.378 38.288C112.047 38.4918 111.77 38.7714 111.568 39.1035C111.538 39.1486 111.496 39.1848 111.448 39.2086C111.399 39.2323 111.345 39.2428 111.29 39.2388Z" fill="#263238"/>
<path d="M120.317 37.6831C120.266 37.684 120.216 37.6729 120.17 37.6507C120.124 37.6285 120.085 37.5958 120.054 37.5553C119.838 37.2374 119.548 36.9769 119.209 36.7962C118.87 36.6155 118.492 36.5201 118.107 36.5182C118.067 36.5202 118.026 36.5142 117.988 36.5006C117.95 36.4869 117.915 36.4659 117.885 36.4387C117.855 36.4114 117.831 36.3786 117.813 36.3419C117.796 36.3053 117.786 36.2655 117.784 36.2251C117.78 36.1445 117.808 36.0656 117.861 36.0052C117.914 35.9448 117.989 35.9077 118.07 35.9019C118.556 35.8994 119.036 36.0151 119.468 36.2389C119.9 36.4628 120.271 36.7881 120.55 37.1871C120.575 37.2195 120.593 37.2566 120.604 37.2962C120.614 37.3357 120.617 37.377 120.611 37.4176C120.606 37.4582 120.592 37.4973 120.571 37.5325C120.55 37.5678 120.523 37.5985 120.49 37.623C120.438 37.6572 120.379 37.6779 120.317 37.6831Z" fill="#263238"/>
<path d="M97.7475 264.608C97.7732 264.599 97.7958 264.583 97.813 264.562C97.8302 264.54 97.8414 264.515 97.8452 264.488C97.8502 264.456 97.8457 264.423 97.8323 264.394C97.819 264.365 97.7973 264.34 97.77 264.323C97.4769 264.172 94.8916 262.819 94.0949 263.233C94.0214 263.274 93.959 263.332 93.9132 263.403C93.8674 263.474 93.8394 263.555 93.8319 263.639C93.8154 263.777 93.832 263.917 93.8803 264.048C93.9287 264.179 94.0074 264.296 94.11 264.39C94.8089 265.029 96.6728 264.804 97.7249 264.616L97.7475 264.608ZM94.2978 263.481C94.7864 263.315 96.1918 263.879 97.2139 264.383C95.7784 264.601 94.7112 264.525 94.3204 264.165C94.2521 264.103 94.2 264.026 94.1686 263.939C94.1371 263.853 94.1273 263.76 94.14 263.669C94.1391 263.635 94.1477 263.601 94.165 263.572C94.1823 263.543 94.2075 263.519 94.2377 263.503L94.2978 263.481Z" fill="#3D3FDF"/>
<path d="M97.7475 264.608H97.7851C97.8068 264.593 97.8244 264.573 97.8362 264.549C97.848 264.526 97.8537 264.499 97.8528 264.473C97.8528 264.398 97.6949 262.647 96.8833 261.955C96.7677 261.854 96.6329 261.777 96.4869 261.73C96.341 261.682 96.187 261.664 96.034 261.677C95.6131 261.715 95.4854 261.933 95.4553 262.098C95.3275 262.849 96.8532 264.262 97.6273 264.623C97.668 264.63 97.7097 264.624 97.7475 264.608ZM95.9062 261.993C95.9587 261.986 96.0116 261.986 96.0641 261.993C96.1764 261.983 96.2895 261.995 96.3967 262.03C96.504 262.065 96.603 262.121 96.6879 262.196C97.1607 262.767 97.4467 263.47 97.5071 264.21C96.7179 263.721 95.6808 262.601 95.7559 262.166C95.7634 262.105 95.7785 262.038 95.9062 261.993Z" fill="#3D3FDF"/>
<path d="M151.672 264.879L145.171 264.781L141.007 249.735L147.516 249.832L151.672 264.879Z" fill="#FFC3BD"/>
<path d="M144.712 264.029L151.807 264.142C151.939 264.145 152.067 264.191 152.171 264.272C152.275 264.353 152.35 264.466 152.386 264.593L153.994 270.38C154.037 270.514 154.046 270.656 154.022 270.795C153.998 270.933 153.94 271.064 153.855 271.175C153.769 271.287 153.658 271.376 153.53 271.435C153.403 271.494 153.263 271.522 153.122 271.515C150.559 271.432 149.725 271.229 146.509 271.177C142.751 271.117 144.509 271.274 140.098 271.177C137.43 271.139 136.543 268.449 137.64 268.17C141.112 267.419 141.819 265.983 143.179 264.45C143.393 264.279 143.639 264.154 143.902 264.082C144.166 264.009 144.442 263.991 144.712 264.029Z" fill="#263238"/>
<path opacity="0.2" d="M141.007 249.735L143.157 257.491L149.665 257.596L147.516 249.84L141.007 249.735Z" fill="black"/>
<path d="M135.408 185.251C131.725 156.091 128.975 127.472 124.601 120.956L101.671 120.587C101.671 120.587 114.936 167.935 119.415 187.386C124.06 207.58 140.195 254.026 140.195 254.026L150.657 254.177C150.657 254.177 142.277 207.805 135.408 185.251Z" fill="#3D3FDF"/>
<path d="M138.752 256.191L151.807 256.394L152.544 252.162L137.993 251.711L138.752 256.191Z" fill="#263238"/>
<path d="M145.118 264.548C145.147 264.551 145.176 264.546 145.201 264.533C145.227 264.519 145.248 264.498 145.261 264.473C145.279 264.446 145.289 264.415 145.289 264.383C145.289 264.35 145.279 264.319 145.261 264.292C145.043 264.044 143.082 261.88 142.187 262.038C142.103 262.049 142.023 262.081 141.956 262.133C141.889 262.184 141.836 262.253 141.804 262.331C141.737 262.453 141.703 262.59 141.703 262.729C141.703 262.868 141.737 263.005 141.804 263.128C142.24 263.969 144.059 264.398 145.118 264.578V264.548ZM142.27 262.293C142.788 262.293 143.916 263.323 144.697 264.142C143.277 263.857 142.3 263.391 142.052 262.94C142.009 262.859 141.987 262.768 141.987 262.677C141.987 262.585 142.009 262.495 142.052 262.414C142.063 262.381 142.083 262.353 142.11 262.332C142.136 262.31 142.168 262.297 142.202 262.293H142.27Z" fill="#3D3FDF"/>
<path d="M145.118 264.548H145.163C145.189 264.54 145.212 264.525 145.231 264.505C145.249 264.486 145.262 264.461 145.268 264.435C145.268 264.368 145.757 262.677 145.268 261.745C145.195 261.61 145.094 261.491 144.972 261.397C144.851 261.302 144.711 261.234 144.562 261.196C144.156 261.083 143.961 261.241 143.878 261.391C143.502 262.03 144.449 263.894 145.051 264.503C145.069 264.524 145.092 264.539 145.118 264.548ZM144.284 261.467H144.449C144.558 261.495 144.659 261.546 144.747 261.616C144.835 261.686 144.908 261.773 144.96 261.872C145.211 262.571 145.239 263.329 145.043 264.044C144.464 263.293 143.878 261.91 144.104 261.519C144.122 261.486 144.152 261.459 144.187 261.444C144.222 261.429 144.262 261.427 144.299 261.437L144.284 261.467Z" fill="#3D3FDF"/>
<path d="M131.432 71.894L131.695 72.4877L132.011 73.1641L132.657 74.5469C133.116 75.4714 133.597 76.3883 134.1 77.2901C135.1 79.1164 136.174 80.8976 137.324 82.6111C138.462 84.3278 139.688 85.9835 140.999 87.5714C141.638 88.3756 142.352 89.0745 143.014 89.8787L144.081 90.9609L144.614 91.5096L144.682 91.5772C144.682 91.5772 144.682 91.5772 144.629 91.5772C144.577 91.5772 144.442 91.5772 144.464 91.5772C144.589 91.6326 144.728 91.6484 144.862 91.6223C145.559 91.5302 146.237 91.3272 146.869 91.0211C148.619 90.1632 150.276 89.1282 151.814 87.9322C155.234 85.3073 158.496 82.4841 161.585 79.4772L165.402 82.4834C164.147 84.4579 162.785 86.3622 161.322 88.1877C159.851 90.035 158.269 91.7918 156.587 93.4486C154.797 95.2542 152.802 96.8433 150.642 98.1834C149.328 98.9884 147.899 99.5866 146.403 99.9571C145.436 100.181 144.439 100.252 143.45 100.168C142.274 100.061 141.135 99.7073 140.105 99.1304C139.857 98.9725 139.594 98.8147 139.354 98.6419L139 98.3788L138.827 98.2435L138.745 98.1684L138.038 97.5671L136.64 96.3646C135.754 95.5154 134.837 94.6887 134.025 93.7793C132.341 92.0217 130.779 90.151 129.35 88.1802C127.918 86.2343 126.607 84.2011 125.427 82.0926C124.841 81.0329 124.285 79.9657 123.751 78.8684C123.488 78.3198 123.218 77.7711 123 77.2075L122.631 76.3432L122.256 75.3812L131.432 71.894Z" fill="#FFC3BD"/>
<path d="M128.681 64.8669C134.694 66.7157 137.452 80.1235 137.452 80.1235L128.298 88.1652C124.753 84.5332 121.982 80.22 120.151 75.4864C117.062 67.2042 121.429 62.6197 128.681 64.8669Z" fill="#263238"/>
<path d="M137.896 80.3715C137.728 79.8319 137.512 79.3086 137.249 78.8083C137.249 78.8083 127.99 85.4145 127.141 87.6015C127.47 88.1537 127.968 88.5857 128.561 88.8341C128.561 88.8341 136.964 83.1824 137.896 80.3715Z" fill="#3D3FDF"/>
<path d="M160.51 80.9051L164.02 75.3586L169.228 81.2583C169.228 81.2583 165.471 85.8954 162.66 84.2646L160.51 80.9051Z" fill="#FFC3BD"/>
<path d="M170.656 73.8029L172.159 76.1778C172.447 76.6345 172.561 77.1792 172.481 77.7129C172.401 78.2466 172.132 78.7339 171.723 79.0863L169.251 81.2583L164.042 75.3586L167.507 73.1039C167.759 72.9396 168.041 72.8272 168.336 72.7733C168.632 72.7195 168.935 72.7253 169.229 72.7904C169.522 72.8555 169.8 72.9787 170.045 73.1525C170.29 73.3264 170.498 73.5475 170.656 73.8029Z" fill="#FFC3BD"/>
<path d="M246.864 89.766C243.42 86.3177 239.328 83.5838 234.824 81.7214C230.321 79.859 225.493 78.9047 220.62 78.9135H204.747V82.4759C200.896 84.2986 197.388 86.7697 194.375 89.781C190.898 86.296 186.761 83.5398 182.205 81.6737C177.65 79.8077 172.768 78.8693 167.845 78.9135H151.98V82.6111C146.645 85.1879 142.006 89.0041 138.448 93.7409C134.89 98.4777 132.518 103.997 131.53 109.839C130.542 115.68 130.966 121.672 132.768 127.316C134.57 132.959 137.696 138.089 141.886 142.277L178.337 178.728H178.164V194.766H189.678C192.686 194.766 195.57 193.571 197.697 191.444L246.864 142.277C250.313 138.83 253.049 134.737 254.916 130.232C256.783 125.727 257.744 120.898 257.744 116.022C257.744 111.145 256.783 106.316 254.916 101.811C253.049 97.3062 250.313 93.2131 246.864 89.766Z" fill="#3D3FDF"/>
<path opacity="0.2" d="M246.864 89.766C243.42 86.3177 239.328 83.5838 234.824 81.7214C230.321 79.859 225.493 78.9047 220.62 78.9135H204.747V82.4759C200.896 84.2986 197.388 86.7697 194.375 89.781C190.898 86.296 186.761 83.5398 182.205 81.6737C177.65 79.8077 172.768 78.8693 167.845 78.9135H151.98V82.6111C146.645 85.1879 142.006 89.0041 138.448 93.7409C134.89 98.4777 132.518 103.997 131.53 109.839C130.542 115.68 130.966 121.672 132.768 127.316C134.57 132.959 137.696 138.089 141.886 142.277L178.337 178.728H178.164V194.766H189.678C192.686 194.766 195.57 193.571 197.697 191.444L246.864 142.277C250.313 138.83 253.049 134.737 254.916 130.232C256.783 125.727 257.744 120.898 257.744 116.022C257.744 111.145 256.783 106.316 254.916 101.811C253.049 97.3062 250.313 93.2131 246.864 89.766Z" fill="black"/>
<path d="M230.653 89.766C223.692 82.8066 214.252 78.8969 204.408 78.8969C194.565 78.8969 185.125 82.8066 178.164 89.766C171.181 82.9119 161.773 79.0925 151.988 79.1386C142.204 79.1848 132.833 83.0926 125.914 90.0121C118.996 96.9317 115.089 106.303 115.044 116.088C115 125.873 118.82 135.28 125.675 142.262L178.164 194.751L230.653 142.262C234.1 138.815 236.834 134.723 238.7 130.22C240.565 125.716 241.526 120.889 241.526 116.014C241.526 111.139 240.565 106.312 238.7 101.809C236.834 97.3049 234.1 93.2128 230.653 89.766Z" fill="#3D3FDF"/>
<path d="M154.678 173.922L154.146 174.454L162.261 182.569L162.793 182.037L154.678 173.922Z" fill="#3D3FDF"/>
<path d="M165.985 185.244L165.454 185.776L169.152 189.474L169.684 188.943L165.985 185.244Z" fill="#3D3FDF"/>
<path opacity="0.2" d="M230.653 89.766C223.692 82.8066 214.252 78.8969 204.408 78.8969C194.565 78.8969 185.125 82.8066 178.164 89.766C171.181 82.9119 161.773 79.0925 151.988 79.1386C142.204 79.1848 132.833 83.0926 125.914 90.0121C118.996 96.9317 115.089 106.303 115.044 116.088C115 125.873 118.82 135.28 125.675 142.262L178.164 194.751L230.653 142.262C234.1 138.815 236.834 134.723 238.7 130.22C240.565 125.716 241.526 120.889 241.526 116.014C241.526 111.139 240.565 106.312 238.7 101.809C236.834 97.3049 234.1 93.2128 230.653 89.766Z" fill="black"/>
<path d="M131.087 136.843C128.351 134.108 126.181 130.861 124.701 127.287C123.221 123.713 122.459 119.882 122.459 116.014C122.459 112.146 123.221 108.315 124.701 104.741C126.181 101.167 128.351 97.92 131.087 95.1847C133.822 92.4493 137.069 90.2795 140.643 88.7992C144.217 87.3188 148.048 86.5569 151.916 86.5569C155.784 86.5569 159.615 87.3188 163.189 88.7992C166.763 90.2795 170.01 92.4493 172.745 95.1847L178.164 100.603L183.583 95.1847C186.318 92.4493 189.565 90.2795 193.139 88.7992C196.713 87.3188 200.544 86.5569 204.412 86.5569C208.281 86.5569 212.111 87.3188 215.685 88.7992C219.259 90.2795 222.506 92.4493 225.242 95.1847C227.977 97.92 230.147 101.167 231.627 104.741C233.107 108.315 233.869 112.146 233.869 116.014C233.869 119.882 233.107 123.713 231.627 127.287C230.147 130.861 227.977 134.108 225.242 136.843L178.164 183.921L131.087 136.843Z" fill="#3D3FDF"/>
<path d="M139.91 110.945H152.851V114.349H148.507V124.758H144.246V114.387H139.91V110.945Z" fill="white"/>
<path d="M154.821 110.945H159.082V115.74H163.734V110.922H168.011V124.758H163.734V119.189H159.082V124.758H154.821V110.945Z" fill="white"/>
<path d="M179.276 122.444H174.444L173.775 124.698H169.423L174.602 110.922H179.246L184.424 124.758H179.968L179.276 122.444ZM178.397 119.437L176.894 114.485L175.391 119.437H178.397Z" fill="white"/>
<path d="M185.807 110.945H189.783L194.969 118.566V110.945H198.982V124.758H194.969L189.813 117.19V124.758H185.807V110.945Z" fill="white"/>
<path d="M201.83 110.945H206.092V116.153L210.549 110.945H216.208L211.187 116.146L216.448 124.758H211.187L208.279 119.092L206.084 121.399V124.758H201.823L201.83 110.945Z" fill="white"/>
<path d="M155.031 134.04H159.758L162.532 138.692L165.312 134.04H170.017L164.658 142.044V147.816H160.397V142.044L155.031 134.04Z" fill="white"/>
<path d="M169.702 140.939C169.608 139.981 169.727 139.014 170.05 138.108C170.374 137.201 170.894 136.378 171.574 135.696C172.253 135.014 173.075 134.491 173.981 134.165C174.887 133.838 175.853 133.716 176.811 133.807C179.104 133.807 180.877 134.423 182.117 135.656C182.762 136.346 183.259 137.161 183.579 138.05C183.898 138.939 184.032 139.884 183.974 140.827C184.026 142.193 183.748 143.552 183.162 144.787C182.635 145.805 181.816 146.643 180.81 147.192C179.63 147.803 178.312 148.101 176.984 148.057C175.656 148.1 174.336 147.843 173.121 147.305C172.08 146.787 171.218 145.967 170.649 144.953C169.979 143.724 169.652 142.338 169.702 140.939ZM173.956 140.939C173.855 141.998 174.12 143.059 174.707 143.946C174.981 144.232 175.31 144.46 175.674 144.616C176.038 144.772 176.43 144.852 176.826 144.852C177.223 144.852 177.615 144.772 177.979 144.616C178.343 144.46 178.672 144.232 178.946 143.946C179.442 143.352 179.697 142.285 179.697 140.737C179.793 139.73 179.526 138.723 178.946 137.896C178.68 137.598 178.351 137.364 177.983 137.209C177.615 137.054 177.218 136.983 176.819 137.001C176.428 136.986 176.039 137.06 175.681 137.218C175.323 137.375 175.005 137.612 174.752 137.911C174.141 138.802 173.859 139.878 173.956 140.954V140.939Z" fill="white"/>
<path d="M195.232 134.04H199.486V142.247C199.491 143.033 199.362 143.813 199.102 144.554C198.852 145.268 198.443 145.915 197.907 146.448C197.428 146.949 196.846 147.338 196.201 147.591C195.235 147.925 194.217 148.083 193.195 148.057C192.461 148.05 191.729 148.003 191.001 147.914C190.308 147.85 189.633 147.659 189.009 147.35C188.451 147.053 187.955 146.649 187.551 146.163C187.138 145.705 186.828 145.164 186.642 144.577C186.399 143.823 186.268 143.039 186.251 142.247V134.04H190.497V142.443C190.479 142.764 190.525 143.085 190.632 143.388C190.739 143.691 190.905 143.97 191.121 144.209C191.606 144.614 192.218 144.835 192.849 144.835C193.481 144.835 194.093 144.614 194.578 144.209C194.796 143.971 194.964 143.691 195.072 143.386C195.179 143.081 195.223 142.758 195.202 142.435L195.232 134.04Z" fill="white"/>
</svg>
